<?xml version="1.0" standalone="no"?>
<!DOCTYPE svg PUBLIC "-//W3C//DTD SVG 1.1//EN" "http://www.w3.org/Graphics/SVG/1.1/DTD/svg11.dtd" >
<svg xmlns="http://www.w3.org/2000/svg" xmlns:xlink="http://www.w3.org/1999/xlink" version="1.1">
<metadata></metadata>
<defs>
<font id="verbmedium_italic" horiz-adv-x="1251" >
<font-face units-per-em="2048" ascent="1638" descent="-410" />
<missing-glyph horiz-adv-x="569" />
<glyph unicode="&#xfb01;" horiz-adv-x="1259" d="M-190 -279q49 14 83 25.5t63.5 27t47.5 26t34 32t24 36t17 48t14 57t13 72.5l156 870h-145l28 160h146l20 119q27 158 92.5 228.5t192.5 70.5q62 0 144 -23t137 -47l-78 -145q-107 33 -160 33q-93 0 -115 -115l-22 -121h278l-26 -160h-279l-151 -858q-33 -183 -57 -246 q-39 -99 -127 -154t-283 -101zM786 0l191 1075h211l-191 -1075h-211zM1004 1270l38 217h228l-37 -217h-229z" />
<glyph unicode="&#xfb02;" horiz-adv-x="1273" d="M-190 -279q49 14 83 25.5t63.5 27t47.5 26t34 32t24 36t17 48t14 57t13 72.5l156 870h-145l28 160h146l20 119q27 158 92.5 228.5t192.5 70.5q62 0 144 -23t137 -47l-78 -145q-107 33 -160 33q-93 0 -115 -115l-22 -121h278l-26 -160h-279l-151 -858q-33 -183 -57 -246 q-39 -99 -127 -154t-283 -101zM795 0l264 1493h211l-264 -1493h-211z" />
<glyph unicode="&#xfb03;" horiz-adv-x="2000" d="M-190 -279q49 14 83 25.5t63.5 27t47.5 26t34 32t24 36t17 48t14 57t13 72.5l156 870h-145l28 160h146l20 119q27 159 93 229t198 70q83 0 181.5 -28.5t160.5 -57.5l-82 -141q-145 45 -223 45q-93 0 -115 -115l-22 -121h264l-29 -160h-262l-151 -858q-33 -183 -57 -246 q-39 -99 -127 -154t-283 -101zM551 -279q49 15 83 26t63.5 26.5t47.5 26t34.5 32t25 36.5t17.5 47.5t14 56.5t14 73l156 870h-146l27 160h147l21 119q25 157 91 228t193 71q61 0 142 -23t139 -47l-78 -145q-113 33 -162 33q-92 0 -114 -115l-23 -121h281l-29 -160h-278 l-152 -858q-33 -183 -57 -246q-39 -99 -127 -154t-283 -101zM1530 0l190 1075h211l-190 -1075h-211zM1745 1270l39 217h227l-37 -217h-229z" />
<glyph unicode="&#xfb04;" horiz-adv-x="2017" d="M-190 -279q49 14 83 25.5t63.5 27t47.5 26t34 32t24 36t17 48t14 57t13 72.5l156 870h-145l28 160h146l20 119q27 159 93 229t198 70q83 0 181.5 -28.5t160.5 -57.5l-82 -141q-145 45 -223 45q-93 0 -115 -115l-22 -121h264l-29 -160h-262l-151 -858q-33 -183 -57 -246 q-39 -99 -127 -154t-283 -101zM551 -279q49 15 83 26t63.5 26.5t47.5 26t34.5 32t25 36.5t17.5 47.5t14 56.5t14 73l156 870h-146l27 160h147l21 119q25 157 91 228t193 71q61 0 142 -23t139 -47l-78 -145q-113 33 -162 33q-92 0 -114 -115l-23 -121h281l-29 -160h-278 l-152 -858q-33 -183 -57 -246q-39 -99 -127 -154t-283 -101zM1536 0l264 1493h211l-264 -1493h-211z" />
<glyph horiz-adv-x="0" />
<glyph horiz-adv-x="682" />
<glyph unicode=" "  horiz-adv-x="569" />
<glyph unicode="&#x09;" horiz-adv-x="569" />
<glyph unicode="&#xa0;" horiz-adv-x="569" />
<glyph unicode="!" horiz-adv-x="552" d="M53 0l43 262h234l-43 -262h-234zM180 440l113 994h256l-238 -994h-131z" />
<glyph unicode="&#x22;" horiz-adv-x="849" d="M203 893l57 541h215l-131 -541h-141zM602 893l57 541h215l-135 -541h-137z" />
<glyph unicode="#" horiz-adv-x="1519" d="M47 352l27 164h284l131 399h-258l29 166h285l117 353h172l-117 -353h358l117 353h170l-117 -353h262l-28 -166h-289l-131 -399h262l-27 -164h-288l-117 -352h-170l117 352h-359l-115 -352h-174l117 352h-258zM532 516h357l131 399h-356z" />
<glyph unicode="$" horiz-adv-x="1282" d="M14 172l121 154q185 -113 354 -150l82 469l-32 14q-63 27 -105.5 48.5t-91 55.5t-77 70.5t-47.5 89.5t-19 117q0 185 142.5 300.5t369.5 115.5h4l33 184h157l-35 -198q193 -37 392 -148l-119 -149q-129 74 -305 112l-78 -436l26 -10q65 -27 109.5 -49t97 -58t84 -74.5 t53 -95.5t21.5 -124q0 -195 -153 -314t-384 -119h-4l-30 -182h-158l35 197q-241 42 -443 180zM434 1059q0 -67 42 -104.5t136 -75.5l70 389q-107 -8 -177.5 -63t-70.5 -146zM643 164q121 8 200 67.5t79 153.5q0 71 -52 117t-151 86z" />
<glyph unicode="%" horiz-adv-x="2035" d="M158 1008q0 193 113.5 320.5t299.5 127.5q168 0 264.5 -86t96.5 -233q0 -193 -112.5 -321t-299.5 -128q-168 0 -265 86.5t-97 233.5zM330 1020q0 -197 196 -197q105 0 170.5 92.5t65.5 208.5q0 197 -195 197q-72 0 -127.5 -45.5t-82.5 -113t-27 -142.5zM451 0l993 1434 h180l-997 -1434h-176zM1141 297q0 193 113.5 320.5t299.5 127.5q167 0 264 -86t97 -233q0 -193 -112.5 -321t-299.5 -128q-168 0 -265 86.5t-97 233.5zM1311 309q0 -196 198 -196q105 0 170.5 92.5t65.5 208.5q0 196 -195 196q-72 0 -128 -45.5t-83.5 -113.5t-27.5 -142z " />
<glyph unicode="&#x26;" horiz-adv-x="1435" d="M86 322q0 64 22 122.5t54.5 102.5t85.5 89t100 76t113 70q-66 83 -99.5 156.5t-33.5 163.5q0 110 57.5 192.5t147 122t196.5 39.5q152 0 251 -78t99 -211q0 -54 -20.5 -105.5t-50.5 -91.5t-80.5 -83.5t-94.5 -73.5t-108 -70l256 -309q107 140 170 322h217 q-34 -110 -101 -237t-161 -236l231 -283h-235l-127 154q-216 -177 -471 -177q-188 0 -303 92.5t-115 252.5zM299 330q0 -78 51.5 -132.5t163.5 -54.5q177 0 344 154l-289 352q-131 -84 -200.5 -157.5t-69.5 -161.5zM524 1096q0 -105 94 -226q62 36 103.5 64.5t81 64.5t59 75 t19.5 83q0 60 -40 99.5t-116 39.5q-94 0 -147.5 -58t-53.5 -142z" />
<glyph unicode="'" horiz-adv-x="452" d="M203 893l57 541h215l-131 -541h-141z" />
<glyph unicode="(" horiz-adv-x="643" d="M46 -66q-7 76 15 187l211 1182q9 53 16 84.5t19.5 70t26.5 61t38 50t54 44.5t74 37t99 35.5t128 32.5l41 -139q-69 -21 -112 -39t-72 -36t-45 -44t-24.5 -51.5t-16.5 -71.5l-224 -1249q-6 -34 -8.5 -53.5t-3.5 -42.5t2 -35.5t11 -28t20 -24.5t32.5 -21.5t45.5 -23 t61 -23.5l-59 -129q-172 44 -247 97.5t-82 129.5z" />
<glyph unicode=")" horiz-adv-x="645" d="M-92 -156q84 26 132 47t76.5 51t40 59.5t21.5 86.5l223 1249q8 46 11 69.5t0.5 50.5t-11.5 40.5t-30.5 30.5t-50.5 30t-78 31l59 129q171 -44 245.5 -97t82 -129.5t-14.5 -188.5l-211 -1182q-13 -71 -22 -109.5t-29.5 -84.5t-48 -71.5t-76 -54.5t-115 -50.5t-163.5 -43.5 z" />
<glyph unicode="*" horiz-adv-x="987" d="M172 1004l324 55l-283 166l121 141l209 -254v324l180 -33l-111 -303l283 164l63 -174l-317 -58l277 -164l-119 -141l-207 246l-2 -318l-180 31l110 305l-284 -162z" />
<glyph unicode="+" horiz-adv-x="1273" d="M121 600l29 164h428l67 389h170l-70 -389h431l-27 -164h-432l-68 -387h-168l68 387h-428z" />
<glyph unicode="," horiz-adv-x="514" d="M-14 -217l153 217h-106l47 276h231l-28 -299l-244 -270z" />
<glyph unicode="-" horiz-adv-x="884" d="M123 494l31 178h600l-31 -178h-600z" />
<glyph unicode="." horiz-adv-x="509" d="M35 0l49 276h231l-47 -276h-233z" />
<glyph unicode="/" horiz-adv-x="958" d="M-82 -184l985 1802h176l-985 -1802h-176z" />
<glyph unicode="0" horiz-adv-x="1378" d="M125 547q0 74 9.5 154t32 169.5t56 172t85.5 158.5t116.5 132t153.5 89.5t192 33.5q113 0 203.5 -33t148 -88t96 -130t54.5 -154t16 -166q0 -73 -9.5 -153t-32 -169.5t-56 -172t-85.5 -158.5t-116.5 -132t-153 -89.5t-190.5 -33.5q-114 0 -204.5 33t-148.5 87.5 t-96.5 130t-54.5 154t-16 165.5zM346 526q0 -56 7 -104.5t27 -99.5t52 -86.5t86 -58.5t125 -23q67 0 126 30.5t101 80t76.5 116t56.5 137t37 143.5t21 134.5t6 111.5q0 55 -7 103.5t-27 99.5t-52 87.5t-86 59.5t-125 23q-93 0 -169 -57.5t-122 -144t-77.5 -192t-44 -196.5 t-11.5 -164z" />
<glyph unicode="1" horiz-adv-x="776" d="M139 1235l393 199h203l-252 -1434h-221l217 1206l-268 -131z" />
<glyph unicode="2" horiz-adv-x="1206" d="M-12 0l22 123q15 89 51 164.5t80 129.5t111.5 107.5t126 90.5t144.5 88l13.5 7.5t11.5 6.5t13 8q63 37 95.5 56.5t83 52t76 53t58 50.5t48 54.5t26 54.5t10.5 60q-2 74 -60.5 119t-164.5 45q-103 0 -210 -40t-187 -89l-84 155q245 160 502 160q200 0 313 -94t113 -252 q0 -43 -10 -84t-25.5 -75.5t-43.5 -70.5t-53 -63.5t-67 -60t-72.5 -54.5t-81 -53t-82 -49.5t-86.5 -49.5q-14 -8 -21.5 -12.5t-19.5 -11t-22 -12.5q-81 -47 -131 -80.5t-90.5 -72.5t-62 -80.5t-31.5 -94.5h733l-29 -186h-997z" />
<glyph unicode="3" horiz-adv-x="1228" d="M-14 156l114 143q211 -135 406 -135q158 0 255 75t97 191q0 87 -57 145.5t-141.5 82.5t-188.5 24h-63l30 188h74q96 0 187 29t153.5 88t62.5 133q0 69 -55 109.5t-153 40.5q-95 0 -197 -36t-182 -83l-72 154q27 19 67 40t104 48.5t148 45t168 17.5q189 0 293.5 -86.5 t104.5 -218.5q0 -115 -84 -214t-246 -157q116 -30 193 -126.5t77 -227.5q0 -66 -20.5 -129.5t-65 -121.5t-109 -102t-158.5 -70t-206 -26q-95 0 -183.5 18.5t-160 52t-109.5 55.5t-83 53z" />
<glyph unicode="4" horiz-adv-x="1312" d="M10 303l27 160l840 971h290l-168 -945h218l-31 -186h-219l-54 -303h-219l54 303h-738zM283 489h497l129 732z" />
<glyph unicode="5" horiz-adv-x="1208" d="M4 156l123 141q33 -25 73 -49.5t121 -52t158 -27.5q94 0 178 36t140.5 111t56.5 174q0 112 -68.5 180t-195.5 68q-59 0 -121 -16.5t-95.5 -32t-82.5 -41.5l-119 76l201 711h815l-29 -187h-635l-92 -364q101 37 215 37q204 0 319 -120t115 -304q0 -103 -40 -196.5 t-113 -165.5t-184 -114.5t-244 -42.5q-87 0 -167.5 17.5t-145 49.5t-102.5 56t-81 56z" />
<glyph unicode="6" horiz-adv-x="1284" d="M109 494q0 261 117.5 481.5t325.5 350.5t460 130q63 0 119.5 -8t82.5 -16l25 -9l-80 -166q-59 17 -139 17q-214 0 -389.5 -133.5t-253.5 -356.5q150 136 362 136q102 0 184.5 -33.5t135 -90.5t80.5 -130.5t28 -155.5q0 -103 -37 -198t-105 -170t-174.5 -120t-234.5 -45 q-100 0 -184.5 28.5t-143 78t-99.5 115.5t-60.5 140.5t-19.5 154.5zM328 483q0 -85 30 -156.5t95.5 -119t156.5 -47.5q78 0 143 29t106.5 77.5t64 109.5t22.5 126q0 102 -66.5 175t-195.5 73q-115 0 -213.5 -62.5t-140.5 -132.5q-2 -23 -2 -72z" />
<glyph unicode="7" horiz-adv-x="1048" d="M141 0q21 119 69.5 250.5t106 242t132 226.5t134 197.5t125 162t93.5 112t51 56.5h-686l31 187h948l-27 -168q-13 -13 -36 -37.5t-90.5 -104t-131 -161.5t-144.5 -203t-144.5 -237.5t-117.5 -256t-77 -266.5h-236z" />
<glyph unicode="8" horiz-adv-x="1304" d="M57 344q0 285 410 440q-188 114 -188 297q0 167 138 271t359 104q202 0 320 -88t118 -235q0 -229 -325 -367q57 -28 101.5 -59.5t86 -75.5t64 -102t22.5 -126q0 -125 -79.5 -223t-217.5 -150.5t-309 -52.5q-230 0 -365 96.5t-135 270.5zM283 360q0 -99 74 -154.5 t200 -55.5q154 0 267.5 75t113.5 189q0 161 -266 276q-63 -21 -111 -40.5t-103.5 -50t-91 -63t-59.5 -78.5t-24 -98zM492 1061q0 -129 188 -207q66 20 117 41t98.5 51t73.5 71t26 89q0 75 -60.5 128.5t-160.5 53.5q-116 0 -199 -67.5t-83 -159.5z" />
<glyph unicode="9" horiz-adv-x="1284" d="M80 10l80 166q59 -16 139 -16q214 0 389.5 133.5t253.5 355.5q-149 -135 -362 -135q-102 0 -184.5 33.5t-135 90.5t-80.5 130.5t-28 155.5t23 159.5t69 145t111 118.5t154.5 80t192.5 29q124 0 223.5 -43.5t160 -116.5t92.5 -164t32 -192q0 -195 -69.5 -372.5 t-188.5 -307.5t-287.5 -206.5t-357.5 -76.5q-63 0 -119.5 8t-81.5 17zM373 932q0 -102 66.5 -175t195.5 -73q115 0 213.5 61.5t140.5 131.5q2 25 2 73q0 85 -30 157t-95.5 119.5t-156.5 47.5q-78 0 -143 -29t-106.5 -77.5t-64 -109.5t-22.5 -126z" />
<glyph unicode=":" horiz-adv-x="528" d="M39 0l47 276h231l-45 -276h-233zM160 680l47 276h233l-49 -276h-231z" />
<glyph unicode=";" horiz-adv-x="552" d="M2 -217l154 217h-107l47 276h232l-29 -299l-244 -270zM172 680l45 276h234l-48 -276h-231z" />
<glyph unicode="&#x3c;" horiz-adv-x="1273" d="M94 608l25 152l1100 426l-29 -199l-858 -315l741 -314l-31 -178z" />
<glyph unicode="=" horiz-adv-x="1273" d="M86 414l29 166h1028l-29 -166h-1028zM154 791l24 163h1028l-24 -163h-1028z" />
<glyph unicode="&#x3e;" horiz-adv-x="1273" d="M78 180l31 201l860 313l-744 316l29 176l950 -426l-24 -152z" />
<glyph unicode="?" horiz-adv-x="1062" d="M186 1311q244 145 473 145q174 0 287 -85t113 -241q0 -76 -29 -142t-78 -114.5t-118 -88t-143.5 -65.5t-160.5 -44l-57 -236h-143l45 359q105 21 185.5 47t145 62.5t98.5 86t34 109.5q0 82 -57 124t-154 42q-87 0 -171 -31t-192 -88zM209 0l43 262h233l-45 -262h-231z " />
<glyph unicode="@" horiz-adv-x="1966" d="M84 387q0 159 46 309t137 278.5t216.5 224.5t295 151t362.5 55q204 0 356.5 -64.5t238.5 -176t119 -256t11 -310.5q-13 -93 -35.5 -177t-63 -173t-93 -153t-131.5 -105t-173 -41q-60 0 -104 16.5t-68 41.5t-37.5 59.5t-16.5 64t-1 62.5q-177 -146 -357 -146 q-112 0 -188 74t-76 188q0 87 30 155.5t81.5 110t115.5 63t136 21.5q41 0 94 -7t89 -14t86 -18t63 -14l18 107q18 102 -15 146t-137 44q-128 0 -348 -86l-43 129q236 90 416 90q346 0 287 -325l-68 -387q-7 -35 -11 -58t-6.5 -53t-1 -49.5t8 -40.5t19 -33t33 -19.5 t48.5 -7.5q48 0 101.5 35.5t104 100.5t90 169.5t54.5 229.5q11 69 9 136t-12 130t-35.5 120.5t-60.5 107.5t-87.5 90.5t-116.5 69t-147.5 44t-179.5 15.5q-145 0 -276 -35t-234 -97.5t-187 -149.5t-139.5 -189.5t-85 -218t-29.5 -236.5q0 -191 72.5 -338.5t216 -233 t338.5 -85.5q68 0 134.5 9.5t112 23.5t81.5 28t53 23l18 10l52 -80q-7 -4 -21 -11.5t-60 -26.5t-95.5 -33t-125.5 -26t-153 -12q-166 0 -303.5 57.5t-229.5 159t-142 239.5t-50 298zM694 330q0 -76 41.5 -113t112.5 -37q68 0 154.5 41.5t162.5 106.5l35 186l-67.5 13.5 t-106 18.5t-88.5 7q-125 0 -184.5 -66.5t-59.5 -156.5z" />
<glyph unicode="A" horiz-adv-x="1406" d="M-66 0l797 1434h242l291 -1434h-232l-55 328h-619l-170 -328h-254zM451 506h495l-121 725z" />
<glyph unicode="B" horiz-adv-x="1390" d="M76 0l252 1434h512q216 0 337 -86.5t121 -235.5q0 -78 -32 -144t-81.5 -108t-102.5 -67t-101 -31q32 -5 66 -18t72 -39.5t67.5 -61t49 -87.5t19.5 -116q0 -209 -140.5 -324.5t-395.5 -115.5h-643zM324 174h360q169 0 261.5 79.5t92.5 207.5q0 100 -78.5 154.5 t-214.5 54.5h-331zM440 836h312q55 0 110 15t104 43.5t79 77.5t30 111q0 81 -65 129t-197 48h-295z" />
<glyph unicode="C" horiz-adv-x="1331" d="M123 559q0 204 56 375t151.5 284t222.5 175.5t270 62.5q66 0 133 -14.5t115 -32.5t111.5 -54t94.5 -56.5t93 -63.5l-125 -154q-121 89 -213.5 132.5t-187.5 43.5q-139 0 -252.5 -90.5t-177.5 -247.5t-64 -348q0 -198 73 -296.5t200 -98.5q177 0 467 174l98 -172 q-166 -94 -313.5 -147.5t-294.5 -53.5q-100 0 -181.5 33.5t-144 102t-97 182t-34.5 264.5z" />
<glyph unicode="D" horiz-adv-x="1452" d="M76 0l252 1434h401q312 0 476.5 -143t164.5 -406q0 -131 -29.5 -256t-94.5 -239.5t-158.5 -200.5t-230.5 -137.5t-302 -51.5h-479zM328 188h196q191 0 333.5 90t216 246t73.5 357q0 193 -115 278.5t-338 85.5h-178z" />
<glyph unicode="E" horiz-adv-x="1232" d="M76 0l250 1434h936l-31 -189h-717l-78 -436h590l-33 -184h-587l-80 -437h727l-31 -188h-946z" />
<glyph unicode="F" horiz-adv-x="1179" d="M76 0l250 1434h936l-31 -189h-717l-78 -436h568l-29 -186h-569l-111 -623h-219z" />
<glyph unicode="G" horiz-adv-x="1445" d="M123 543q0 220 57.5 397t155 288t222 169.5t263.5 58.5q85 0 168 -20.5t159 -59t129.5 -72.5t119.5 -83l-129 -152q-1 1 -33 23.5t-37.5 26t-36.5 24t-42 26t-40.5 22.5t-45.5 22.5t-44 16.5t-49 15t-47 8t-51 4q-138 0 -250.5 -89.5t-176 -247t-63.5 -351.5 q0 -189 69 -296t206 -107q177 0 432 201l45 249h-373l31 179h579l-139 -795h-209l29 164q-112 -86 -220.5 -136.5t-226.5 -50.5q-97 0 -178 34.5t-143 102.5t-96.5 178t-34.5 251z" />
<glyph unicode="H" horiz-adv-x="1464" d="M76 0l252 1434h219l-105 -590h660l104 590h221l-251 -1434h-222l115 659h-659l-115 -659h-219z" />
<glyph unicode="I" horiz-adv-x="585" d="M76 0l252 1434h219l-252 -1434h-219z" />
<glyph unicode="J" horiz-adv-x="585" d="M-195 -145q63 18 105 32t73 31.5t48 31.5t29.5 38.5t17.5 45.5t12 60l238 1340h219l-234 -1330q-27 -144 -48 -194q-37 -87 -130 -138q-90 -50 -276 -94z" />
<glyph unicode="K" horiz-adv-x="1359" d="M76 0l252 1434h219l-131 -744l741 744h283l-699 -689l496 -745h-246l-395 602l-236 -231l-65 -371h-219z" />
<glyph unicode="L" horiz-adv-x="1130" d="M76 0l252 1434h219l-221 -1248h692l-31 -186h-911z" />
<glyph unicode="M" horiz-adv-x="1726" d="M76 0l252 1434h227l276 -947l629 947h228l-252 -1434h-219l184 1051l-535 -811h-131l-250 852l-190 -1092h-219z" />
<glyph unicode="N" horiz-adv-x="1497" d="M76 0l252 1434h225l487 -1125l199 1125h221l-252 -1434h-225l-489 1128l-199 -1128h-219z" />
<glyph unicode="O" horiz-adv-x="1544" d="M123 590q0 74 11 153t37.5 164.5t65.5 164t98 149t131.5 122.5t169.5 82.5t208 30.5q157 0 276 -45t192.5 -127.5t110 -193t37.5 -248.5q0 -74 -11.5 -152.5t-38.5 -164t-66 -163.5t-98 -149t-131.5 -123t-169.5 -82.5t-208 -30.5q-127 0 -229 29.5t-173.5 82.5 t-119 129.5t-70 169t-22.5 202.5zM348 592q0 -426 383 -426q86 0 161 32t128.5 86t95.5 122.5t67 145t37.5 149.5t12.5 139q0 426 -381 426q-87 0 -162 -32t-129 -86t-96 -122.5t-67 -145t-37.5 -149.5t-12.5 -139z" />
<glyph unicode="P" horiz-adv-x="1335" d="M76 0l252 1434h499q242 0 376 -96.5t134 -295.5q0 -222 -156.5 -361.5t-430.5 -139.5h-359l-96 -541h-219zM422 725h301q173 0 280 80t107 233q0 209 -283 209h-311z" />
<glyph unicode="Q" horiz-adv-x="1542" d="M123 590q0 74 11 153t37.5 164.5t65.5 164t98 149t131.5 122.5t169.5 82.5t208 30.5q157 0 276 -45t192.5 -127.5t110 -193t37.5 -248.5q0 -91 -17.5 -188t-58 -200.5t-100 -191t-151.5 -158t-203 -102.5l200 -190l-161 -138l-269 303q-148 5 -259.5 52t-180.5 129 t-103 190t-34 242zM348 592q0 -426 383 -426q86 0 161 32t128.5 86t95.5 122.5t67 145t37.5 149.5t12.5 139q0 426 -381 426q-87 0 -162 -32t-129 -86t-96 -122.5t-67 -145t-37.5 -149.5t-12.5 -139z" />
<glyph unicode="R" horiz-adv-x="1411" d="M76 0l252 1434h559q238 0 370 -91.5t132 -279.5q0 -185 -125.5 -313t-337.5 -154l276 -596h-227l-260 590h-316l-104 -590h-219zM428 768h354q175 0 276 75t101 214q0 198 -287 198h-354z" />
<glyph unicode="S" horiz-adv-x="1273" d="M8 172l119 154q272 -162 475 -162q133 0 222 60.5t89 160.5q0 28 -9 52.5t-22.5 43t-38 37t-46.5 31.5t-58.5 28.5t-63.5 26t-70.5 27t-72.5 28.5q-63 26 -105.5 48t-90.5 56t-76.5 70.5t-47.5 89.5t-19 117q0 185 142.5 300.5t369.5 115.5q265 0 550 -162l-118 -149 q-92 52 -212 88.5t-214 36.5q-118 0 -200.5 -56t-82.5 -155q0 -29 7.5 -52t26 -42t37.5 -33t54.5 -30t63.5 -27t77.5 -30t85.5 -34q65 -27 109.5 -49t97 -58t84 -74.5t53 -95.5t21.5 -124q0 -195 -153 -314t-384 -119q-165 0 -323.5 58t-276.5 137z" />
<glyph unicode="T" horiz-adv-x="1177" d="M154 1245l30 189h1094l-31 -189h-436l-221 -1245h-221l221 1245h-436z" />
<glyph unicode="U" horiz-adv-x="1443" d="M144 405q2 73 16 160l151 869h224l-162 -904q-14 -62 -14 -116q0 -13 1 -26q4 -66 27.5 -115t85 -77t158.5 -28q98 0 171.5 27t120 78.5t73.5 113.5t42 143l160 904h221l-162 -916q-17 -94 -45 -171t-77.5 -147.5t-117 -118t-166.5 -76t-222 -28.5q-110 0 -194.5 20 t-140 58.5t-90.5 90.5q-34 50 -48 118q-12 61 -13 126q1 8 1 15z" />
<glyph unicode="V" horiz-adv-x="1402" d="M176 1434h244l201 -1198l616 1198h268l-792 -1434h-244z" />
<glyph unicode="W" horiz-adv-x="1931" d="M197 1434h243l70 -1137l496 1137h198l84 -1143l471 1143h258l-645 -1434h-227l-88 1124l-492 -1124h-227z" />
<glyph unicode="X" horiz-adv-x="1290" d="M-76 0l611 717l-334 717h239l234 -584l436 584h268l-587 -717l360 -717h-244l-256 573l-448 -573h-279z" />
<glyph unicode="Y" horiz-adv-x="1306" d="M166 1434h233l260 -691l502 691h260l-671 -867l-99 -567h-219l100 571z" />
<glyph unicode="Z" horiz-adv-x="1269" d="M-33 0l29 172l991 1073h-754l31 189h1047l-27 -172l-995 -1074h811l-31 -188h-1102z" />
<glyph unicode="[" horiz-adv-x="708" d="M6 -295l354 2013h484l-23 -137h-264l-307 -1737h264l-25 -139h-483z" />
<glyph unicode="\" horiz-adv-x="929" d="M221 1618h160l362 -1802h-157z" />
<glyph unicode="]" horiz-adv-x="710" d="M-100 -295l22 139h264l308 1737h-265l25 137h483l-354 -2013h-483z" />
<glyph unicode="^" horiz-adv-x="1273" d="M162 696l512 738h217l260 -738h-221l-168 547l-354 -547h-246z" />
<glyph unicode="_" horiz-adv-x="1441" d="M-20 -317l26 155h1155l-24 -155h-1157z" />
<glyph unicode="`" horiz-adv-x="466" d="M246 1493h254l209 -272h-164z" />
<glyph unicode="a" d="M78 365q0 211 63.5 378t179.5 261t265 94q110 0 195.5 -46.5t162.5 -117.5l25 141h213l-191 -1075h-213l27 154q-199 -177 -408 -177q-49 0 -94 12.5t-86.5 41.5t-72 72.5t-48.5 110.5t-18 151zM295 387q0 -111 44.5 -174t129.5 -63q97 0 185 49.5t184 136.5l75 430 q-139 158 -282 158q-102 0 -180.5 -79t-117 -199.5t-38.5 -258.5z" />
<glyph unicode="b" horiz-adv-x="1245" d="M43 0l264 1493h211l-98 -551q196 156 379 156q54 0 103 -12.5t94 -41.5t77.5 -72.5t52 -110.5t19.5 -150q0 -211 -62 -378t-176 -261.5t-260 -94.5q-81 0 -157 28.5t-117 58t-94 75.5l-25 -139h-211zM307 307q144 -155 297 -155q98 0 173.5 78.5t113 199t37.5 258.5 q0 112 -50.5 174t-148.5 62q-87 0 -167.5 -43t-174.5 -121z" />
<glyph unicode="c" horiz-adv-x="1064" d="M76 426q0 159 47.5 290t125.5 212.5t173.5 125.5t195.5 44q41 0 80.5 -5t79.5 -17.5t66 -21t66.5 -29.5t53 -27.5t52.5 -31.5l41 -24l-105 -145q-4 2 -31.5 19.5t-43 26.5t-47 25t-56 24.5t-56.5 15.5t-61 7q-147 0 -254.5 -138.5t-107.5 -332.5q0 -134 57 -209t164 -75 q33 0 70 8t79.5 24.5t66.5 27t67.5 32.5t46.5 24l78 -165q-3 -1 -31.5 -14.5t-37 -17.5t-38.5 -16.5t-44.5 -18t-44.5 -17t-49.5 -16.5t-48.5 -13t-52 -11.5t-50.5 -6.5t-52.5 -3q-179 0 -289 117.5t-110 331.5z" />
<glyph unicode="d" d="M78 365q0 211 63.5 378t179.5 261t265 94q110 0 195.5 -46.5t162.5 -117.5l98 559h213l-264 -1493h-213l27 154q-199 -177 -408 -177q-49 0 -94 12.5t-86.5 41.5t-72 72.5t-48.5 110.5t-18 151zM295 387q0 -111 44.5 -174t129.5 -63q97 0 185 49.5t184 136.5l75 430 q-139 158 -282 158q-102 0 -180.5 -79t-117 -199.5t-38.5 -258.5z" />
<glyph unicode="e" horiz-adv-x="1148" d="M74 442q0 187 74 335.5t214 234.5t324 86q181 0 285 -81t104 -210q0 -95 -45 -163.5t-132.5 -110t-208.5 -61t-281 -19.5h-119v-21q0 -139 59.5 -215t175.5 -76q60 0 139.5 24.5t123 45t119.5 59.5l18 9l73 -150q-297 -152 -508 -152q-193 0 -304 117t-111 348zM307 582 h113q223 0 335.5 56.5t112.5 158.5q0 66 -52.5 104.5t-137.5 38.5q-136 0 -235 -101.5t-136 -256.5z" />
<glyph unicode="f" horiz-adv-x="743" d="M-190 -279q49 15 83 26t63.5 26.5t47.5 26t34.5 32t25 36.5t17.5 47.5t14 56.5t14 73l155 870h-145l26 160h148l20 119q25 158 90.5 228.5t198.5 70.5q83 0 181 -28t163 -58l-96 -141q-40 14 -107 29.5t-104 15.5q-93 0 -115 -115l-22 -121h280l-28 -160h-279l-151 -858 q-33 -183 -57 -246q-39 -99 -127 -154t-283 -101z" />
<glyph unicode="g" horiz-adv-x="1247" d="M-16 -358l67 174q251 -80 428 -80q73 0 127.5 18.5t87 51t50 68t24.5 77.5l35 201q-201 -175 -406 -175q-49 0 -94 12.5t-86.5 41.5t-72 72.5t-48.5 110.5t-18 151q0 211 63.5 378t179.5 261t265 94q109 0 194 -46.5t162 -117.5l25 141h211l-197 -1120 q-20 -114 -62.5 -192t-107.5 -121.5t-141.5 -61.5t-177.5 -18q-242 0 -508 80zM293 387q0 -111 45.5 -174t130.5 -63q95 0 180 48t187 136l75 434q-137 156 -282 156q-101 0 -179.5 -78.5t-117.5 -199.5t-39 -259z" />
<glyph unicode="h" horiz-adv-x="1245" d="M43 0l264 1493h211l-98 -557q92 62 208 112t226 50q166 0 232 -96q46 -66 45 -165q0 -44 -9 -94l-129 -743h-213l129 721q6 37 6 67q0 50 -17 85q-28 55 -118 55q-91 0 -203 -53t-188 -113l-135 -762h-211z" />
<glyph unicode="i" horiz-adv-x="516" d="M43 0l190 1075h211l-190 -1075h-211zM260 1270l37 217h227l-35 -217h-229z" />
<glyph unicode="j" horiz-adv-x="516" d="M-250 -279q64 19 106.5 34t73.5 33t47.5 32t28.5 39.5t17 46t12 61.5l198 1108h211l-194 -1093q-27 -144 -49 -195q-37 -87 -132 -139q-91 -49 -272 -92zM260 1270l37 217h229l-37 -217h-229z" />
<glyph unicode="k" horiz-adv-x="1095" d="M43 0l264 1493h211l-164 -922l488 504h258l-445 -438l318 -637h-215l-248 494l-205 -201l-51 -293h-211z" />
<glyph unicode="l" horiz-adv-x="532" d="M51 0l264 1493h211l-264 -1493h-211z" />
<glyph unicode="m" horiz-adv-x="1878" d="M43 0l190 1075h211l-26 -149q211 172 391 172q120 0 185 -53.5t79 -145.5q33 31 75 61.5t98.5 63.5t122 53.5t126.5 20.5q165 0 227 -96q43 -66 44 -162q0 -43 -9 -92l-131 -748h-213l131 721q7 39 7 70q0 137 -130 137q-84 0 -178.5 -55t-175.5 -128l-129 -745h-211 l129 721q9 42 9 75q0 132 -132 132q-83 0 -176.5 -53.5t-169.5 -124.5l-133 -750h-211z" />
<glyph unicode="n" horiz-adv-x="1245" d="M43 0l190 1075h211l-24 -139q92 62 208 112t226 50q166 0 232 -96q46 -66 45 -165q0 -44 -9 -94l-129 -743h-213l129 721q6 37 6 67q0 50 -17 85q-28 55 -118 55q-91 0 -203 -53t-188 -113l-135 -762h-211z" />
<glyph unicode="o" d="M76 451q0 134 39.5 251.5t110.5 205.5t178.5 139t236.5 51q239 0 372.5 -125.5t133.5 -347.5q0 -133 -39.5 -251t-111.5 -206.5t-179.5 -139.5t-236.5 -51q-237 0 -370.5 126t-133.5 348zM289 451q0 -143 69.5 -224.5t216.5 -81.5q109 0 192 70.5t124 178t41 231.5 q0 142 -69.5 223.5t-217.5 81.5q-109 0 -192 -70t-123.5 -177.5t-40.5 -231.5z" />
<glyph unicode="p" horiz-adv-x="1245" d="M-31 -418l264 1493h211l-24 -133q196 156 379 156q54 0 103 -12.5t94 -41.5t77.5 -72.5t52 -110.5t19.5 -150q0 -212 -61.5 -378.5t-175.5 -261t-261 -94.5q-81 0 -157 28.5t-117 58t-94 75.5l-99 -557h-211zM307 309q146 -157 297 -157q98 0 173.5 78.5t113 199 t37.5 258.5q0 112 -50.5 174t-148.5 62q-87 0 -167.5 -43t-174.5 -121z" />
<glyph unicode="q" d="M78 365q0 211 63.5 378t179.5 261t265 94q110 0 195.5 -46.5t162.5 -117.5l25 141h213l-264 -1493h-213l100 572q-199 -177 -408 -177q-49 0 -94 12.5t-86.5 41.5t-72 72.5t-48.5 110.5t-18 151zM295 387q0 -111 44.5 -174t129.5 -63q97 0 185 49.5t184 136.5l75 430 q-139 158 -282 158q-102 0 -180.5 -79t-117 -199.5t-38.5 -258.5z" />
<glyph unicode="r" horiz-adv-x="811" d="M43 0l190 1075h211l-41 -227q11 20 29 44t59.5 63.5t88.5 69t119 49.5q55 15 113 14q18 0 36 -1l-35 -200q-71 0 -134.5 -19.5t-108.5 -51t-83.5 -69t-62.5 -75.5t-41 -69.5t-24 -50.5l-7 -20l-98 -532h-211z" />
<glyph unicode="s" horiz-adv-x="1062" d="M-4 129l106 143q90 -52 196 -89.5t196 -37.5q92 0 155.5 40t63.5 108q0 17 -4 31.5t-14 27t-19 22.5t-28 20t-31.5 16t-39 15t-40.5 13.5t-46 14t-47 14.5q-53 17 -89 30.5t-82.5 40t-75 56.5t-48.5 76.5t-20 103.5q0 146 116.5 235t299.5 89q121 0 243.5 -38t208.5 -87 l-102 -139q-192 98 -344 98q-90 0 -148.5 -37.5t-58.5 -101.5q0 -21 6 -38.5t22 -32t29 -24.5t42 -21t45 -16.5t53.5 -17t52.5 -16.5q80 -25 136 -51t104 -63t72 -88t24 -116q0 -153 -123.5 -242.5t-314.5 -89.5q-139 0 -269.5 45t-226.5 107z" />
<glyph unicode="t" horiz-adv-x="792" d="M111 915l26 160h146l49 271l217 40l-55 -311h292l-26 -160h-295l-115 -643q-3 -20 -3 -36q0 -34 14 -50q21 -24 65 -24q57 0 199 53l53 -166q-59 -24 -151 -48t-160 -24q-125 0 -188 79q-43 54 -43 147q0 43 9 94l109 618h-143z" />
<glyph unicode="u" horiz-adv-x="1243" d="M94 332l131 743h211l-129 -721q-6 -37 -7 -67q0 -50 18 -85q28 -55 120 -55q90 0 201.5 52t187.5 110l136 766h211l-191 -1075h-211l25 135q-89 -60 -206.5 -109t-228.5 -49q-164 1 -230 97q-46 67 -47 166q0 43 9 92z" />
<glyph unicode="v" horiz-adv-x="1144" d="M121 1075h219l147 -858l453 858h240l-617 -1075h-209z" />
<glyph unicode="w" horiz-adv-x="1667" d="M133 1075h217l72 -852l397 852h185l86 -852l372 852h232l-523 -1075h-204l-95 815l-393 -815h-205z" />
<glyph unicode="x" horiz-adv-x="1183" d="M-82 0l533 539l-320 536h227l224 -418l368 418h267l-512 -534l344 -541h-232l-239 428l-381 -428h-279z" />
<glyph unicode="y" horiz-adv-x="1148" d="M-18 -274q163 53 234.5 101t141.5 165l-235 1083h219l156 -829l448 829h238l-611 -1075q-89 -154 -126 -203q-83 -110 -210 -170q-84 -40 -206 -71z" />
<glyph unicode="z" horiz-adv-x="1067" d="M-29 0l27 156l750 743h-594l28 176h881l-25 -155l-749 -744h614l-31 -176h-901z" />
<glyph unicode="{" horiz-adv-x="800" d="M51 633l27 160q55 -1 97.5 15t68.5 40.5t42.5 58t23 65t7.5 64.5l9 199q9 243 140 363t404 120h68l-25 -135h-36q-88 0 -151.5 -25t-99 -71t-53 -99t-22.5 -120l-8 -193q-7 -172 -80 -256t-219 -110q268 -64 172 -371l-47 -158q-15 -46 -22.5 -83t-9 -77.5t11 -71 t37 -55.5t70.5 -38t111 -13h37l-20 -135h-39q-253 0 -362 130t-38 366l58 186q40 128 0.5 186t-152.5 58z" />
<glyph unicode="|" horiz-adv-x="497" d="M14 -252l340 1927h164l-340 -1927h-164z" />
<glyph unicode="}" horiz-adv-x="798" d="M-102 -293l22 135h37q307 0 326 316l8 192q7 169 80.5 254.5t218.5 110.5q-265 64 -172 372l49 158q17 56 24 99.5t2.5 90.5t-27 77.5t-72.5 50.5t-126 20h-39l23 135h37q254 0 362 -129.5t35 -365.5l-57 -187q-39 -128 1 -185.5t154 -57.5l-26 -160q-55 1 -98 -15 t-69 -40.5t-43.5 -58t-25 -65.5t-8.5 -65l-6 -199q-9 -243 -139.5 -363t-403.5 -120h-67z" />
<glyph unicode="~" horiz-adv-x="1273" d="M39 461q80 133 168.5 198.5t193.5 65.5q68 0 137 -24t115.5 -53t106.5 -53t112 -24q50 0 98.5 30t108.5 114l138 -60q-83 -133 -171.5 -197.5t-193.5 -64.5q-56 0 -110.5 15.5t-98.5 38t-85.5 45t-87.5 38t-89 15.5q-51 0 -98.5 -29.5t-108.5 -114.5z" />
<glyph unicode="&#xa1;" horiz-adv-x="557" d="M41 0l238 993h131l-113 -993h-256zM260 1171l43 263h234l-43 -263h-234z" />
<glyph unicode="&#xa2;" horiz-adv-x="1150" d="M127 606q0 159 47.5 290t126 212.5t174 125.5t195.5 44h6l29 156h159l-33 -181q36 -11 71 -24.5t72 -33.5l55.5 -30t58 -34.5t42.5 -26.5l-102 -141q-4 3 -31 20t-43.5 26.5t-44 25t-54.5 27t-54 19.5l-127 -725q93 28 248 107l75 -162q-11 -5 -53 -24.5t-69 -31.5 t-69 -28.5t-83 -28.5t-82 -20l-29 -168h-159l26 160q-160 14 -256 130t-96 316zM346 625q0 -116 42.5 -188t123.5 -91l131 741q-126 -31 -211.5 -161.5t-85.5 -300.5z" />
<glyph unicode="&#xa3;" horiz-adv-x="1153" d="M12 0l27 154q11 6 29 17t66 48t87.5 77.5t78 102.5t52.5 125h-225l25 140h202q-9 49 -37 118t-48.5 137t-20.5 138q0 181 121 290t327 109q77 0 148 -15.5t137 -47t102.5 -53t92.5 -58.5l-115 -135q-196 123 -336 123q-120 0 -191 -67.5t-71 -162.5q0 -60 23.5 -121.5 t50.5 -127.5t34 -127h332l-24 -140h-318q-14 -60 -45 -117.5t-68 -100.5t-67 -71.5t-57 -48.5h626l-28 -186h-910z" />
<glyph unicode="&#xa5;" horiz-adv-x="1386" d="M147 328l23 137h385l18 106l-12 29h-364l20 137h287l-295 697h233l260 -691l502 691h258l-538 -697h284l-24 -137h-365l-28 -37l-17 -98h387l-24 -137h-387l-56 -328h-221l57 328h-383z" />
<glyph unicode="&#xa6;" horiz-adv-x="501" d="M16 -252l150 846h164l-150 -846h-164zM207 829l149 846h164l-149 -846h-164z" />
<glyph unicode="&#xa7;" horiz-adv-x="1144" d="M47 -23l103 140q198 -99 348 -99q90 0 147 37.5t57 102.5q0 19 -6 35t-14 28t-25.5 24t-30 19t-38.5 16.5t-41 14.5t-47 14.5t-47 14.5q-80 25 -137 51t-105 63t-72 86t-24 111q0 100 63.5 171t181.5 107q-116 80 -116 220q0 146 117 234.5t301 88.5q121 0 243.5 -38 t208.5 -87l-102 -139q-77 40 -171 69t-175 29q-90 0 -148.5 -37.5t-58.5 -101.5q0 -19 6 -35t14.5 -28t26 -23.5t30.5 -19t39 -17t41.5 -14.5t47 -14.5t47.5 -14.5q77 -24 132.5 -49.5t103.5 -62t72.5 -86.5t24.5 -113q0 -105 -66 -175.5t-177 -103.5q117 -81 117 -219 q0 -146 -117 -234.5t-301 -88.5q-121 0 -243 37.5t-210 86.5zM324 664q0 -46 40 -80.5t78 -49t138 -45.5q16 -5 24 -8l8 -2q103 9 163.5 54t60.5 112q0 21 -7.5 38.5t-17.5 31t-32 27t-40 22.5t-52.5 21t-58.5 19.5t-69 20.5l-14 4q-102 -10 -161.5 -55t-59.5 -110z" />
<glyph unicode="&#xa8;" horiz-adv-x="495" d="M186 1241l37 213h197l-35 -213h-199zM545 1241l37 213h196l-39 -213h-194z" />
<glyph unicode="&#xa9;" horiz-adv-x="1687" d="M131 641q0 131 32.5 251.5t98 223t158 178.5t219 119t274.5 43q206 0 360.5 -84.5t235 -234.5t80.5 -344q0 -131 -32.5 -251.5t-98.5 -223.5t-158 -179t-219.5 -119t-275.5 -43q-309 0 -491.5 184t-182.5 480zM211 643q0 -171 70 -303t208 -208.5t324 -76.5 q160 0 293 58.5t220 159t135 234t48 284.5q0 127 -41 235t-117 186t-190 122t-254 44q-160 0 -293 -58.5t-220 -159t-135 -233.5t-48 -284zM481 618q-5 126 27 230.5t90 172t134.5 104t162.5 36.5q54 0 104.5 -12.5t94.5 -37t69.5 -42.5t59.5 -45l-66 -68q-27 23 -46.5 37 t-55 35t-76.5 32t-86 11q-135 0 -224.5 -126.5t-82.5 -317.5q5 -125 54.5 -195t137.5 -70q145 0 305 111l54 -76q-53 -35 -95 -58t-115.5 -46t-144.5 -23q-126 0 -210.5 91.5t-90.5 256.5z" />
<glyph unicode="&#xaa;" horiz-adv-x="892" d="M182 1016q0 189 89.5 310.5t230.5 121.5q110 0 223 -94l14 80h156l-115 -646h-155l14 84q-120 -98 -248 -98q-88 0 -148.5 59t-60.5 183zM342 1030q0 -131 102 -131q104 0 220 105l41 233q-86 86 -168 86q-88 0 -141.5 -87t-53.5 -206z" />
<glyph unicode="&#xab;" horiz-adv-x="1398" d="M49 500l23 133l696 448l-37 -223l-491 -309l381 -305l-33 -191zM637 500l22 133l699 448l-39 -223l-494 -309l381 -305l-30 -191z" />
<glyph unicode="&#xac;" horiz-adv-x="1273" d="M39 600l29 164h1177l-102 -580h-178l71 416h-997z" />
<glyph unicode="&#xad;" horiz-adv-x="884" d="M123 494l31 178h600l-31 -178h-600z" />
<glyph unicode="&#xae;" horiz-adv-x="1028" d="M180 983q0 91 29 172t82.5 143.5t137 99t185.5 36.5q171 0 272 -102t101 -267q0 -122 -48.5 -223t-148.5 -164.5t-235 -63.5q-173 0 -274 102t-101 267zM250 985q0 -134 82.5 -218.5t226.5 -84.5q165 0 264 109.5t99 271.5q0 133 -84.5 218t-229.5 85q-165 0 -261.5 -109 t-96.5 -272zM399 823l72 412h182q57 0 91 -30.5t34 -76.5q0 -50 -35 -85t-92 -44l68 -176h-70l-63 174h-88l-31 -174h-68zM508 1061h106q46 0 71.5 19t25.5 48q0 46 -60 46h-123z" />
<glyph unicode="&#xaf;" horiz-adv-x="614" d="M231 1272l23 135h604l-22 -135h-605z" />
<glyph unicode="&#xb0;" horiz-adv-x="884" d="M174 1087q0 143 103 246t245 103q144 0 246 -103t102 -246q0 -145 -101.5 -247.5t-246.5 -102.5q-143 0 -245.5 103t-102.5 247zM307 1087q0 -91 63 -154t152 -63q90 0 153.5 63.5t63.5 153.5q0 89 -64 152.5t-153 63.5t-152 -63.5t-63 -152.5z" />
<glyph unicode="&#xb1;" horiz-adv-x="1273" d="M14 0l25 145h1028l-23 -145h-1030zM123 614l29 164h426l57 316h170l-57 -316h430l-25 -164h-434l-55 -317h-170l55 317h-426z" />
<glyph unicode="&#xb2;" horiz-adv-x="815" d="M104 788l15 80q9 55 33 102t51 79t74 66.5t80.5 54.5t92.5 52q9 5 13 7q145 82 184 113q61 50 62 100q-3 40 -38 64t-96 24q-113 0 -249 -80l-62 113q169 100 328 100q130 0 204 -60.5t74 -156.5q0 -46 -19.5 -88.5t-50.5 -75t-76 -64.5t-88.5 -56.5t-96.5 -52.5 q-20 -10 -29 -15q-103 -55 -142.5 -88t-50.5 -84h457l-22 -134h-648z" />
<glyph unicode="&#xb3;" horiz-adv-x="808" d="M96 889l80 102q48 -27 77 -41t81 -28.5t104 -14.5q92 0 147.5 40.5t55.5 101.5q0 70 -68 102.5t-172 32.5h-36l16 133h49q94 0 170 36t76 93q0 39 -33.5 61.5t-89.5 22.5q-99 0 -240 -72l-55 111q112 60 201 80q61 14 121 14q124 0 192 -53.5t68 -134.5q0 -69 -51.5 -127 t-149.5 -93q72 -19 119 -76t47 -132q0 -50 -20.5 -97t-61 -87.5t-110.5 -64.5t-160 -24q-64 0 -122.5 12t-107.5 34.5t-72.5 35.5t-54.5 33z" />
<glyph unicode="&#xb4;" horiz-adv-x="466" d="M188 1221l289 272h285l-387 -272h-187z" />
<glyph unicode="&#xb5;" horiz-adv-x="1247" d="M-16 -418l264 1493h211l-127 -721q-41 -207 129 -207q90 0 201.5 52t187.5 110l135 766h211l-190 -1075h-211l24 135q-238 -158 -434 -158q-64 0 -119 19l-71 -414h-211z" />
<glyph unicode="&#xb6;" horiz-adv-x="1355" d="M129 899q0 168 79.5 291t213.5 183.5t305 60.5h195l-320 -1813h-186l162 897q-207 0 -328 96.5t-121 284.5zM811 -381l319 1815h183l-320 -1815h-182z" />
<glyph unicode="&#xb7;" horiz-adv-x="520" d="M115 444l47 277h233l-47 -277h-233z" />
<glyph unicode="&#xb8;" horiz-adv-x="356" d="M-66 -319l66 114q49 -24 104 -24q50 0 84.5 25.5t34.5 80.5q0 27 -8.5 59t-16.5 50l-8 18h99q6 -8 15 -22.5t24.5 -57t15.5 -82.5q0 -95 -65.5 -147.5t-172.5 -52.5q-98 0 -172 39z" />
<glyph unicode="&#xb9;" horiz-adv-x="507" d="M162 1524l254 125h149l-151 -861h-162l129 701l-166 -78z" />
<glyph unicode="&#xba;" horiz-adv-x="876" d="M178 1055q0 166 100 279.5t269 113.5q150 0 235.5 -75t85.5 -206q0 -168 -99.5 -280.5t-270.5 -112.5q-149 0 -234.5 75t-85.5 206zM332 1063q0 -77 40.5 -122.5t129.5 -45.5q66 0 115.5 40.5t72.5 99.5t23 124q0 168 -168 168q-66 0 -116 -40.5t-73.5 -99.5t-23.5 -124z " />
<glyph unicode="&#xbb;" horiz-adv-x="1394" d="M20 53l39 221l492 310l-379 307l31 190l538 -448l-22 -133zM608 53l39 221l492 310l-379 307l31 190l536 -448l-20 -133z" />
<glyph unicode="&#xbc;" horiz-adv-x="1708" d="M178 1309l254 125h150l-152 -861h-162l127 701l-166 -78zM231 0l926 1434h174l-925 -1434h-175zM784 174l19 113l520 573h209l-98 -555h137l-21 -131h-139l-31 -174h-159l30 174h-467zM983 305h291l74 412z" />
<glyph unicode="&#xbd;" horiz-adv-x="1763" d="M178 1309l254 125h150l-152 -861h-162l127 701l-166 -78zM231 0l926 1434h174l-925 -1434h-175zM899 0l12 80q9 55 32.5 101.5t51.5 79t73 65.5t80 54t92 52q10 5 15 8q50 28 69.5 39t56 33.5t51.5 35.5t34 31.5t26 35.5t7 36q0 41 -34 65.5t-97 24.5q-120 0 -250 -79 l-61 112q169 100 325 100q133 0 206 -60t73 -157q0 -39 -13 -75t-38.5 -66.5t-54.5 -56t-71 -52t-76.5 -45.5t-82.5 -44l-9 -4.5t-7.5 -4t-8.5 -4.5q-102 -54 -140.5 -87.5t-49.5 -84.5h457l-23 -133h-645z" />
<glyph unicode="&#xbe;" horiz-adv-x="1935" d="M90 674l80 102q48 -27 77 -41t81 -28.5t104 -14.5q92 0 147.5 40.5t55.5 101.5q0 48 -35.5 79t-87 43.5t-117.5 12.5h-37l17 133h49q94 0 170 36t76 93q0 40 -33 62t-90 22q-99 0 -240 -72l-55 111q106 57 187 77q68 17 134 17q124 0 192.5 -53.5t68.5 -134.5 q0 -69 -51.5 -127t-149.5 -93q72 -19 119 -76.5t47 -132.5q0 -50 -20.5 -97t-61.5 -87t-111 -64t-160 -24q-64 0 -123 12t-108 35t-70.5 35t-54.5 33zM463 0l926 1434h174l-926 -1434h-174zM1016 174l16 113l520 573h211l-98 -555h137l-20 -131h-140l-30 -174h-162l31 174 h-465zM1212 305h291l72 410z" />
<glyph unicode="&#xbf;" horiz-adv-x="1058" d="M39 303q0 95 43 173t119.5 132t167.5 90.5t200 59.5l58 235h143l-47 -358q-105 -21 -185.5 -47t-145 -62.5t-98.5 -86t-34 -109.5q0 -83 58 -124.5t155 -41.5q86 0 171.5 31.5t189.5 87.5l77 -160q-246 -146 -475 -146q-173 0 -285 85t-112 241zM612 1171l45 263h234 l-45 -263h-234z" />
<glyph unicode="&#xc0;" horiz-adv-x="1406" d="M-66 0l797 1434h242l291 -1434h-232l-55 328h-619l-170 -328h-254zM451 506h495l-121 725zM582 1802h252l208 -272h-163z" />
<glyph unicode="&#xc1;" horiz-adv-x="1406" d="M-66 0l797 1434h242l291 -1434h-232l-55 328h-619l-170 -328h-254zM451 506h495l-121 725zM698 1530l289 272h285l-387 -272h-187z" />
<glyph unicode="&#xc2;" horiz-adv-x="1406" d="M-66 0l797 1434h242l291 -1434h-232l-55 328h-619l-170 -328h-254zM451 506h495l-121 725zM553 1530l252 272h227l158 -272h-141l-140 168l-196 -168h-160z" />
<glyph unicode="&#xc3;" horiz-adv-x="1406" d="M-66 0l797 1434h242l291 -1434h-232l-55 328h-619l-170 -328h-254zM451 506h495l-121 725zM553 1610q32 46 51.5 71t46.5 51t56 37t65 11t73.5 -15.5t63.5 -34t56 -34t53 -15.5t50 19.5t69 75.5l98 -64q-63 -90 -107.5 -129t-111.5 -39q-46 0 -93 24.5t-86 49t-67 24.5 q-24 0 -50.5 -18.5t-68.5 -75.5z" />
<glyph unicode="&#xc4;" horiz-adv-x="1406" d="M-66 0l797 1434h242l291 -1434h-232l-55 328h-619l-170 -328h-254zM451 506h495l-121 725zM596 1550l37 213h196l-36 -213h-197zM954 1550l37 213h197l-37 -213h-197z" />
<glyph unicode="&#xc5;" horiz-adv-x="1406" d="M-66 0l797 1434h242l291 -1434h-232l-55 328h-619l-170 -328h-254zM451 506h495l-121 725zM688 1729q0 91 63 155t154 64t155 -64t64 -155t-64 -155.5t-155 -64.5q-90 0 -153.5 64.5t-63.5 155.5zM801 1729q0 -45 30 -76t74 -31t75.5 31.5t31.5 75.5t-31.5 75t-75.5 31 t-74 -31t-30 -75z" />
<glyph unicode="&#xc6;" horiz-adv-x="2080" d="M-139 0l1226 1434h1022l-30 -189h-717l-78 -436h590l-33 -184h-590l-80 -437h730l-33 -188h-946l57 328h-563l-271 -328h-284zM567 510h443l120 678z" />
<glyph unicode="&#xc7;" horiz-adv-x="1333" d="M125 559q0 204 56 375t151.5 284t222.5 175.5t270 62.5q56 0 108.5 -8t105.5 -28t88.5 -35t91 -49t77 -48t78.5 -53l-125 -154q-125 91 -216 133.5t-187 42.5q-138 0 -251.5 -90t-178 -247.5t-64.5 -348.5q0 -199 73.5 -297t201.5 -98q175 0 465 174l100 -172 q-146 -82 -276.5 -133t-260.5 -63q41 -69 41 -140q0 -95 -65 -147.5t-170 -52.5q-101 0 -172 39l65 114q47 -24 103 -24q51 0 86 25.5t35 80.5q0 43 -23 100q-197 10 -313.5 153.5t-116.5 428.5z" />
<glyph unicode="&#xc8;" horiz-adv-x="1232" d="M76 0l252 1434h936l-31 -189h-717l-78 -436h588l-31 -184h-589l-78 -437h727l-33 -188h-946zM528 1802h254l211 -272h-166z" />
<glyph unicode="&#xc9;" horiz-adv-x="1232" d="M76 0l252 1434h936l-31 -189h-717l-78 -436h588l-31 -184h-589l-78 -437h727l-33 -188h-946zM641 1530l289 272h280l-383 -272h-186z" />
<glyph unicode="&#xca;" horiz-adv-x="1232" d="M76 0l252 1434h936l-31 -189h-717l-78 -436h588l-31 -184h-589l-78 -437h727l-33 -188h-946zM500 1530l256 272h223l158 -272h-138l-141 168l-196 -168h-162z" />
<glyph unicode="&#xcb;" horiz-adv-x="1232" d="M76 0l252 1434h936l-31 -189h-717l-78 -436h588l-31 -184h-589l-78 -437h727l-33 -188h-946zM547 1550l35 213h198l-37 -213h-196zM905 1550l37 213h197l-37 -213h-197z" />
<glyph unicode="&#xcc;" horiz-adv-x="585" d="M76 0l252 1434h221l-252 -1434h-221zM168 1802h252l211 -272h-164z" />
<glyph unicode="&#xcd;" horiz-adv-x="585" d="M76 0l252 1434h221l-252 -1434h-221zM279 1530l288 272h283l-385 -272h-186z" />
<glyph unicode="&#xce;" horiz-adv-x="585" d="M76 0l252 1434h221l-252 -1434h-221zM137 1530l252 272h227l160 -272h-141l-139 168l-197 -168h-162z" />
<glyph unicode="&#xcf;" horiz-adv-x="585" d="M76 0l252 1434h221l-252 -1434h-221zM184 1550l35 213h199l-39 -213h-195zM543 1550l37 213h194l-37 -213h-194z" />
<glyph unicode="&#xd0;" horiz-adv-x="1472" d="M55 629l29 176h152l110 629h399q314 0 479 -143t165 -406q0 -131 -30 -256t-95 -239.5t-158.5 -200.5t-230.5 -137.5t-302 -51.5h-479l111 629h-150zM346 188h197q191 0 333 90t215.5 246t73.5 357q0 193 -115 278.5t-337 85.5h-178l-78 -440h325l-30 -176h-328z" />
<glyph unicode="&#xd1;" horiz-adv-x="1497" d="M76 0l252 1434h225l489 -1127l199 1127h219l-252 -1434h-225l-489 1126l-197 -1126h-221zM606 1610q32 46 51.5 71t46.5 51t56 37t65 11q46 0 93 -25t86 -49.5t67 -24.5q25 0 51 19t68 76l98 -64q-63 -90 -107.5 -129t-111.5 -39q-45 0 -91 24.5t-85.5 49t-67.5 24.5 q-26 0 -52 -18t-68 -76z" />
<glyph unicode="&#xd2;" horiz-adv-x="1544" d="M123 590q0 74 11 153t37.5 164.5t65.5 164t98 149t131.5 122.5t169.5 82.5t208 30.5q157 0 276 -45t192.5 -127.5t110 -193t37.5 -248.5q0 -74 -11.5 -152.5t-38.5 -164t-66 -163.5t-98 -149t-131.5 -123t-169.5 -82.5t-208 -30.5q-127 0 -229 29.5t-173.5 82.5 t-119 129.5t-70 169t-22.5 202.5zM348 592q0 -426 383 -426q86 0 161 32t128.5 86t95.5 122.5t67 145t37.5 149.5t12.5 139q0 426 -381 426q-87 0 -162 -32t-129 -86t-96 -122.5t-67 -145t-37.5 -149.5t-12.5 -139zM647 1802h252l209 -272h-164z" />
<glyph unicode="&#xd3;" horiz-adv-x="1544" d="M123 590q0 74 11 153t37.5 164.5t65.5 164t98 149t131.5 122.5t169.5 82.5t208 30.5q157 0 276 -45t192.5 -127.5t110 -193t37.5 -248.5q0 -74 -11.5 -152.5t-38.5 -164t-66 -163.5t-98 -149t-131.5 -123t-169.5 -82.5t-208 -30.5q-127 0 -229 29.5t-173.5 82.5 t-119 129.5t-70 169t-22.5 202.5zM348 592q0 -426 383 -426q86 0 161 32t128.5 86t95.5 122.5t67 145t37.5 149.5t12.5 139q0 426 -381 426q-87 0 -162 -32t-129 -86t-96 -122.5t-67 -145t-37.5 -149.5t-12.5 -139zM756 1530l288 272h285l-385 -272h-188z" />
<glyph unicode="&#xd4;" horiz-adv-x="1544" d="M123 590q0 74 11 153t37.5 164.5t65.5 164t98 149t131.5 122.5t169.5 82.5t208 30.5q157 0 276 -45t192.5 -127.5t110 -193t37.5 -248.5q0 -74 -11.5 -152.5t-38.5 -164t-66 -163.5t-98 -149t-131.5 -123t-169.5 -82.5t-208 -30.5q-127 0 -229 29.5t-173.5 82.5 t-119 129.5t-70 169t-22.5 202.5zM348 592q0 -426 383 -426q86 0 161 32t128.5 86t95.5 122.5t67 145t37.5 149.5t12.5 139q0 426 -381 426q-87 0 -162 -32t-129 -86t-96 -122.5t-67 -145t-37.5 -149.5t-12.5 -139zM618 1530l252 272h228l157 -272h-139l-139 168l-197 -168 h-162z" />
<glyph unicode="&#xd5;" horiz-adv-x="1544" d="M123 590q0 74 11 153t37.5 164.5t65.5 164t98 149t131.5 122.5t169.5 82.5t208 30.5q157 0 276 -45t192.5 -127.5t110 -193t37.5 -248.5q0 -74 -11.5 -152.5t-38.5 -164t-66 -163.5t-98 -149t-131.5 -123t-169.5 -82.5t-208 -30.5q-127 0 -229 29.5t-173.5 82.5 t-119 129.5t-70 169t-22.5 202.5zM348 592q0 -426 383 -426q86 0 161 32t128.5 86t95.5 122.5t67 145t37.5 149.5t12.5 139q0 426 -381 426q-87 0 -162 -32t-129 -86t-96 -122.5t-67 -145t-37.5 -149.5t-12.5 -139zM616 1610q59 89 105.5 129.5t112.5 40.5q37 0 74.5 -15.5 t63 -34t55 -34t52.5 -15.5q25 0 52 19t69 76l96 -64q-60 -88 -105.5 -128t-111.5 -40q-47 0 -93 24.5t-85 49t-67 24.5q-26 0 -52.5 -18.5t-68.5 -75.5z" />
<glyph unicode="&#xd6;" horiz-adv-x="1544" d="M123 590q0 74 11 153t37.5 164.5t65.5 164t98 149t131.5 122.5t169.5 82.5t208 30.5q157 0 276 -45t192.5 -127.5t110 -193t37.5 -248.5q0 -74 -11.5 -152.5t-38.5 -164t-66 -163.5t-98 -149t-131.5 -123t-169.5 -82.5t-208 -30.5q-127 0 -229 29.5t-173.5 82.5 t-119 129.5t-70 169t-22.5 202.5zM348 592q0 -426 383 -426q86 0 161 32t128.5 86t95.5 122.5t67 145t37.5 149.5t12.5 139q0 426 -381 426q-87 0 -162 -32t-129 -86t-96 -122.5t-67 -145t-37.5 -149.5t-12.5 -139zM662 1550l36 213h197l-39 -213h-194zM1020 1550l35 213 h196l-37 -213h-194z" />
<glyph unicode="&#xd7;" horiz-adv-x="1273" d="M176 420l348 274l-248 271l132 110l251 -274l355 280l108 -127l-350 -276l248 -270l-131 -111l-252 274l-352 -278z" />
<glyph unicode="&#xd8;" horiz-adv-x="1542" d="M39 0l186 201q-104 147 -104 389q0 74 11 153t37.5 164.5t65.5 164t98 149t131.5 122.5t169.5 82.5t208 30.5q267 0 424 -129l98 107h172l-186 -201q105 -152 108 -391q0 -74 -11.5 -152.5t-38.5 -164t-66 -163.5t-98 -149t-131.5 -123t-169.5 -82.5t-208 -30.5 q-267 0 -424 129l-98 -106h-174zM348 592q0 -133 35 -219l739 798q-98 95 -272 95q-87 0 -162 -32t-128.5 -86t-95 -122.5t-66.5 -145t-37.5 -149.5t-12.5 -139zM453 260q97 -94 276 -94q86 0 161 32t128.5 86t95.5 122.5t67 145t37.5 149.5t12.5 139q0 130 -37 223z" />
<glyph unicode="&#xd9;" horiz-adv-x="1443" d="M142 375.5q1 88.5 16 189.5l153 869h221l-161 -904q-11 -65 -12.5 -116t11.5 -98.5t43 -79t85 -50t133 -18.5q97 0 170.5 27t120 78.5t74 113.5t42.5 143l160 904h219l-160 -916q-17 -94 -45 -171t-77.5 -147.5t-117 -118t-166.5 -76t-222 -28.5q-131 0 -226.5 29 t-149.5 81.5t-83 126t-28 162zM594 1802h254l209 -272h-164z" />
<glyph unicode="&#xda;" horiz-adv-x="1443" d="M142 375.5q1 88.5 16 189.5l153 869h221l-161 -904q-11 -65 -12.5 -116t11.5 -98.5t43 -79t85 -50t133 -18.5q97 0 170.5 27t120 78.5t74 113.5t42.5 143l160 904h219l-160 -916q-17 -94 -45 -171t-77.5 -147.5t-117 -118t-166.5 -76t-222 -28.5q-131 0 -226.5 29 t-149.5 81.5t-83 126t-28 162zM702 1530l291 272h283l-385 -272h-189z" />
<glyph unicode="&#xdb;" horiz-adv-x="1443" d="M142 375.5q1 88.5 16 189.5l153 869h221l-161 -904q-11 -65 -12.5 -116t11.5 -98.5t43 -79t85 -50t133 -18.5q97 0 170.5 27t120 78.5t74 113.5t42.5 143l160 904h219l-160 -916q-17 -94 -45 -171t-77.5 -147.5t-117 -118t-166.5 -76t-222 -28.5q-131 0 -226.5 29 t-149.5 81.5t-83 126t-28 162zM565 1530l252 272h227l160 -272h-141l-139 168l-197 -168h-162z" />
<glyph unicode="&#xdc;" horiz-adv-x="1443" d="M142 375.5q1 88.5 16 189.5l153 869h221l-161 -904q-11 -65 -12.5 -116t11.5 -98.5t43 -79t85 -50t133 -18.5q97 0 170.5 27t120 78.5t74 113.5t42.5 143l160 904h219l-160 -916q-17 -94 -45 -171t-77.5 -147.5t-117 -118t-166.5 -76t-222 -28.5q-131 0 -226.5 29 t-149.5 81.5t-83 126t-28 162zM610 1550l37 213h197l-37 -213h-197zM971 1550l35 213h194l-37 -213h-192z" />
<glyph unicode="&#xdd;" horiz-adv-x="1306" d="M166 1434h231l260 -691l502 691h260l-669 -869l-99 -565h-221l100 571zM631 1530l289 272h284l-387 -272h-186z" />
<glyph unicode="&#xde;" horiz-adv-x="1355" d="M76 0l252 1434h219l-43 -248h280q242 0 376 -96t134 -295q0 -222 -157.5 -362t-429.5 -140h-359l-53 -293h-219zM377 477h305q172 0 279.5 81t107.5 233q0 210 -285 210h-311z" />
<glyph unicode="&#xdf;" horiz-adv-x="1370" d="M43 0l176 1008q44 240 192 344t412 104q261 0 389.5 -117t85.5 -346l-4 -24l-127 -119q-144 82 -262 82q-78 0 -130 -40t-52 -104q0 -18 5.5 -34t12 -27.5t22 -23.5t25.5 -18.5t34 -16.5t36 -14t42 -14.5t42 -14.5q145 -51 218 -123.5t73 -190.5q0 -104 -56.5 -181 t-147 -115t-200.5 -38q-124 0 -242 45.5t-204 108.5l100 141q68 -49 166.5 -89t169.5 -40q74 0 135.5 42t61.5 108q0 44 -37.5 79.5t-73.5 51t-110 41.5q-7 3 -11 4q-46 17 -78.5 31.5t-72.5 40.5t-64.5 55t-41.5 73.5t-17 98.5q0 144 106 237t277 93q96 0 203 -35 q6 118 -63 171.5t-218 53.5q-76 0 -135.5 -13.5t-112.5 -46.5t-88 -95t-51 -152l-174 -981h-211z" />
<glyph unicode="&#xe0;" d="M78 365q0 211 64 378t180.5 261t265.5 94q76 0 150 -29.5t115 -60t93 -76.5l25 143h211l-191 -1075h-211l27 154q-199 -177 -408 -177q-62 0 -117 20.5t-102 64t-74.5 121.5t-27.5 182zM297 387q0 -111 44.5 -174t129.5 -63q97 0 185 49.5t184 136.5l75 430 q-143 158 -284 158q-101 0 -179 -78.5t-116.5 -199.5t-38.5 -259zM457 1493h254l209 -272h-164z" />
<glyph unicode="&#xe1;" d="M78 365q0 211 64 378t180.5 261t265.5 94q76 0 150 -29.5t115 -60t93 -76.5l25 143h211l-191 -1075h-211l27 154q-199 -177 -408 -177q-62 0 -117 20.5t-102 64t-74.5 121.5t-27.5 182zM297 387q0 -111 44.5 -174t129.5 -63q97 0 185 49.5t184 136.5l75 430 q-143 158 -284 158q-101 0 -179 -78.5t-116.5 -199.5t-38.5 -259zM539 1221l288 272h281l-383 -272h-186z" />
<glyph unicode="&#xe2;" d="M78 365q0 211 64 378t180.5 261t265.5 94q76 0 150 -29.5t115 -60t93 -76.5l25 143h211l-191 -1075h-211l27 154q-199 -177 -408 -177q-62 0 -117 20.5t-102 64t-74.5 121.5t-27.5 182zM297 387q0 -111 44.5 -174t129.5 -63q97 0 185 49.5t184 136.5l75 430 q-143 158 -284 158q-101 0 -179 -78.5t-116.5 -199.5t-38.5 -259zM428 1221l252 272h227l158 -272h-141l-140 168l-194 -168h-162z" />
<glyph unicode="&#xe3;" d="M78 365q0 211 64 378t180.5 261t265.5 94q76 0 150 -29.5t115 -60t93 -76.5l25 143h211l-191 -1075h-211l27 154q-199 -177 -408 -177q-62 0 -117 20.5t-102 64t-74.5 121.5t-27.5 182zM297 387q0 -111 44.5 -174t129.5 -63q97 0 185 49.5t184 136.5l75 430 q-143 158 -284 158q-101 0 -179 -78.5t-116.5 -199.5t-38.5 -259zM430 1300q32 46 51.5 71t46.5 51t56 37t65 11q47 0 93.5 -24.5t85.5 -49t67 -24.5q25 0 51 18.5t70 75.5l96 -63q-60 -88 -105.5 -128t-111.5 -40q-47 0 -93.5 24.5t-85.5 49t-67 24.5q-26 0 -52.5 -18.5 t-68.5 -75.5z" />
<glyph unicode="&#xe4;" d="M78 365q0 211 64 378t180.5 261t265.5 94q76 0 150 -29.5t115 -60t93 -76.5l25 143h211l-191 -1075h-211l27 154q-199 -177 -408 -177q-62 0 -117 20.5t-102 64t-74.5 121.5t-27.5 182zM297 387q0 -111 44.5 -174t129.5 -63q97 0 185 49.5t184 136.5l75 430 q-143 158 -284 158q-101 0 -179 -78.5t-116.5 -199.5t-38.5 -259zM479 1241l37 213h197l-35 -213h-199zM840 1241l34 213h195l-35 -213h-194z" />
<glyph unicode="&#xe5;" d="M78 365q0 211 64 378t180.5 261t265.5 94q76 0 150 -29.5t115 -60t93 -76.5l25 143h211l-191 -1075h-211l27 154q-199 -177 -408 -177q-62 0 -117 20.5t-102 64t-74.5 121.5t-27.5 182zM297 387q0 -111 44.5 -174t129.5 -63q97 0 185 49.5t184 136.5l75 430 q-143 158 -284 158q-101 0 -179 -78.5t-116.5 -199.5t-38.5 -259zM567 1419q0 91 63 155t154 64t155.5 -64t64.5 -155t-64.5 -155t-155.5 -64t-154 64t-63 155zM680 1419q0 -44 30 -75t74 -31t75.5 31t31.5 75t-31.5 75.5t-75.5 31.5t-74 -31t-30 -76z" />
<glyph unicode="&#xe6;" horiz-adv-x="1914" d="M78 365q0 211 63.5 378t179.5 261t265 94q110 0 195.5 -46.5t162.5 -117.5l25 141h213l-6 -37q123 60 274 60q180 0 284.5 -81t104.5 -210q0 -95 -45 -163.5t-133 -110t-209 -61t-281 -19.5h-116v-21q0 -140 57.5 -215.5t173.5 -75.5q50 0 104 12.5t116.5 39.5t91 41 t88.5 45l75 -150q-53 -27 -91 -44.5t-112 -47t-152 -45t-153 -15.5q-154 0 -254 72l-8 -49h-211l27 156q-83 -74 -189 -126.5t-221 -52.5q-49 0 -94 12.5t-86.5 41.5t-72 72.5t-48.5 110.5t-18 151zM295 387q0 -111 44.5 -174t129.5 -63q97 0 183.5 49.5t187.5 138.5l2 16 q-4 58 -4 88q0 185 71 330q-141 152 -278 152q-102 0 -180.5 -79t-117 -199.5t-38.5 -258.5zM1071 582h113q223 0 336.5 56.5t113.5 158.5q0 66 -53 104.5t-137 38.5q-137 0 -236.5 -101.5t-136.5 -256.5z" />
<glyph unicode="&#xe7;" horiz-adv-x="1064" d="M76 426q0 159 47.5 290t125.5 212.5t173.5 125.5t195.5 44q41 0 80.5 -5t79.5 -17.5t66 -21t66.5 -29.5t53 -27.5t52.5 -31.5l41 -24l-105 -145q-4 2 -31.5 19.5t-43 26.5t-47 25t-56 24.5t-56.5 15.5t-61 7q-147 0 -254.5 -138.5t-107.5 -332.5q0 -134 57 -209t164 -75 q33 0 70 8t79.5 24.5t66.5 27t67.5 32.5t46.5 24l78 -165q-59 -28 -85.5 -39.5t-90.5 -36.5t-122 -38t-114 -17q39 -71 39 -138q0 -94 -65 -147t-169 -53q-105 0 -176 39l68 114q47 -24 104 -24q49 0 84 25.5t35 80.5q0 47 -24 107q-152 21 -242 135t-90 307z" />
<glyph unicode="&#xe8;" horiz-adv-x="1148" d="M74 442q0 187 74 335.5t214 234.5t324 86q181 0 285 -81t104 -210q0 -186 -171 -270t-498 -84h-117v-21q0 -139 58.5 -215t174.5 -76q49 0 102.5 12t118 40t91 40.5t90.5 45.5l73 -150q-297 -152 -508 -152q-193 0 -304 117t-111 348zM307 582h113q221 0 334.5 56.5 t113.5 158.5q0 66 -53 104.5t-137 38.5q-136 0 -235 -101.5t-136 -256.5zM430 1493h252l209 -272h-164z" />
<glyph unicode="&#xe9;" horiz-adv-x="1148" d="M74 442q0 187 74 335.5t214 234.5t324 86q181 0 285 -81t104 -210q0 -186 -171 -270t-498 -84h-117v-21q0 -139 58.5 -215t174.5 -76q49 0 102.5 12t118 40t91 40.5t90.5 45.5l73 -150q-297 -152 -508 -152q-193 0 -304 117t-111 348zM307 582h113q221 0 334.5 56.5 t113.5 158.5q0 66 -53 104.5t-137 38.5q-136 0 -235 -101.5t-136 -256.5zM541 1221l288 272h281l-383 -272h-186z" />
<glyph unicode="&#xea;" horiz-adv-x="1148" d="M74 442q0 187 74 335.5t214 234.5t324 86q181 0 285 -81t104 -210q0 -186 -171 -270t-498 -84h-117v-21q0 -139 58.5 -215t174.5 -76q49 0 102.5 12t118 40t91 40.5t90.5 45.5l73 -150q-297 -152 -508 -152q-193 0 -304 117t-111 348zM307 582h113q221 0 334.5 56.5 t113.5 158.5q0 66 -53 104.5t-137 38.5q-136 0 -235 -101.5t-136 -256.5zM399 1221l252 272h228l159 -272h-143l-137 168l-197 -168h-162z" />
<glyph unicode="&#xeb;" horiz-adv-x="1148" d="M74 442q0 187 74 335.5t214 234.5t324 86q181 0 285 -81t104 -210q0 -186 -171 -270t-498 -84h-117v-21q0 -139 58.5 -215t174.5 -76q49 0 102.5 12t118 40t91 40.5t90.5 45.5l73 -150q-297 -152 -508 -152q-193 0 -304 117t-111 348zM307 582h113q221 0 334.5 56.5 t113.5 158.5q0 66 -53 104.5t-137 38.5q-136 0 -235 -101.5t-136 -256.5zM444 1241l37 213h199l-37 -213h-199zM805 1241l37 213h194l-37 -213h-194z" />
<glyph unicode="&#xec;" horiz-adv-x="516" d="M43 0l190 1075h213l-190 -1075h-213zM76 1493h254l211 -272h-164z" />
<glyph unicode="&#xed;" horiz-adv-x="516" d="M43 0l190 1075h213l-190 -1075h-213zM186 1221l289 272h283l-385 -272h-187z" />
<glyph unicode="&#xee;" horiz-adv-x="516" d="M43 0l190 1075h213l-190 -1075h-213zM47 1221l254 272h225l158 -272h-139l-139 168l-197 -168h-162z" />
<glyph unicode="&#xef;" horiz-adv-x="516" d="M43 0l190 1075h213l-190 -1075h-213zM92 1241l39 213h197l-39 -213h-197zM451 1241l38 213h195l-37 -213h-196z" />
<glyph unicode="&#xf0;" horiz-adv-x="1271" d="M70 422q0 234 156.5 393.5t385.5 159.5q76 0 141.5 -20t104.5 -48.5t67 -56.5t39 -48l11 -20q-8 143 -68.5 260.5t-175.5 174.5l-121 -97h-207l177 140q-36 4 -54 4q-40 0 -82.5 -5t-65.5 -9l-22 -5l-4 168q81 21 187 21q108 0 217 -33l114 92h205l-190 -154 q138 -89 212 -253.5t74 -383.5q0 -332 -168.5 -528.5t-453.5 -196.5q-222 0 -350.5 117.5t-128.5 327.5zM291 414q0 -122 63.5 -195.5t202.5 -73.5q78 0 143 25t107.5 65t72 93t42 107t12.5 108q0 122 -68 193t-202 71q-89 0 -161.5 -33t-118 -88.5t-69.5 -125t-24 -146.5z " />
<glyph unicode="&#xf1;" horiz-adv-x="1245" d="M43 0l190 1075h213l-24 -137q92 61 207.5 110.5t226.5 49.5q163 0 230 -96.5t38 -258.5l-131 -743h-211l127 721q9 44 6.5 82t-14.5 65.5t-42.5 43.5t-78.5 16q-89 0 -198.5 -51.5t-190.5 -112.5l-135 -764h-213zM416 1300q32 46 51.5 71t46.5 51t56 37t65 11 q47 0 93.5 -24.5t85.5 -49t67 -24.5q25 0 50.5 18.5t67.5 75.5l99 -63q-63 -90 -107.5 -129t-111.5 -39q-45 0 -91 24.5t-85.5 49t-67.5 24.5q-26 0 -52.5 -18.5t-68.5 -75.5z" />
<glyph unicode="&#xf2;" d="M76 451q0 134 39.5 251.5t110.5 205.5t178.5 139t236.5 51q239 0 372.5 -125.5t133.5 -347.5q0 -133 -39.5 -251t-111.5 -206.5t-179.5 -139.5t-236.5 -51q-237 0 -370.5 126t-133.5 348zM289 451q0 -143 69.5 -224.5t216.5 -81.5q109 0 192 70.5t124 178t41 231.5 q0 142 -69.5 223.5t-217.5 81.5q-109 0 -192 -70t-123.5 -177.5t-40.5 -231.5zM442 1493h254l209 -272h-164z" />
<glyph unicode="&#xf3;" d="M76 451q0 134 39.5 251.5t110.5 205.5t178.5 139t236.5 51q239 0 372.5 -125.5t133.5 -347.5q0 -133 -39.5 -251t-111.5 -206.5t-179.5 -139.5t-236.5 -51q-237 0 -370.5 126t-133.5 348zM289 451q0 -143 69.5 -224.5t216.5 -81.5q109 0 192 70.5t124 178t41 231.5 q0 142 -69.5 223.5t-217.5 81.5q-109 0 -192 -70t-123.5 -177.5t-40.5 -231.5zM555 1221l289 272h280l-383 -272h-186z" />
<glyph unicode="&#xf4;" d="M76 451q0 134 39.5 251.5t110.5 205.5t178.5 139t236.5 51q239 0 372.5 -125.5t133.5 -347.5q0 -133 -39.5 -251t-111.5 -206.5t-179.5 -139.5t-236.5 -51q-237 0 -370.5 126t-133.5 348zM289 451q0 -143 69.5 -224.5t216.5 -81.5q109 0 192 70.5t124 178t41 231.5 q0 142 -69.5 223.5t-217.5 81.5q-109 0 -192 -70t-123.5 -177.5t-40.5 -231.5zM414 1221l252 272h227l160 -272h-142l-139 168l-197 -168h-161z" />
<glyph unicode="&#xf5;" d="M76 451q0 134 39.5 251.5t110.5 205.5t178.5 139t236.5 51q239 0 372.5 -125.5t133.5 -347.5q0 -133 -39.5 -251t-111.5 -206.5t-179.5 -139.5t-236.5 -51q-237 0 -370.5 126t-133.5 348zM289 451q0 -143 69.5 -224.5t216.5 -81.5q109 0 192 70.5t124 178t41 231.5 q0 142 -69.5 223.5t-217.5 81.5q-109 0 -192 -70t-123.5 -177.5t-40.5 -231.5zM408 1276q61 98 91 129q58 59 130 59q49 0 135.5 -42t124.5 -42q30 0 54.5 16t55.5 66l103 -39q-25 -41 -36.5 -59t-35.5 -49t-42.5 -44t-46 -24.5t-58.5 -11.5q-50 0 -137 42t-125 42 q-29 0 -53.5 -16.5t-57.5 -65.5z" />
<glyph unicode="&#xf6;" d="M76 451q0 134 39.5 251.5t110.5 205.5t178.5 139t236.5 51q239 0 372.5 -125.5t133.5 -347.5q0 -133 -39.5 -251t-111.5 -206.5t-179.5 -139.5t-236.5 -51q-237 0 -370.5 126t-133.5 348zM289 451q0 -143 69.5 -224.5t216.5 -81.5q109 0 192 70.5t124 178t41 231.5 q0 142 -69.5 223.5t-217.5 81.5q-109 0 -192 -70t-123.5 -177.5t-40.5 -231.5zM461 1241l37 213h196l-35 -213h-198zM819 1241l37 213h195l-37 -213h-195z" />
<glyph unicode="&#xf7;" horiz-adv-x="1273" d="M121 600l29 164h1026l-27 -164h-1028zM455 309q-4 58 39 100t102 42q48 0 81 -31t38 -76q6 -56 -36.5 -97.5t-103.5 -41.5q-47 0 -81 30.5t-39 73.5zM580 1022q-6 56 37 97.5t104 41.5q46 0 81 -30t38 -74q6 -56 -37.5 -99t-102.5 -43q-47 0 -81 31t-39 76z" />
<glyph unicode="&#xf8;" horiz-adv-x="1253" d="M23 0l145 152q-90 119 -90 299q0 133 39.5 251t111.5 206t179.5 139t236.5 51q200 0 334 -97l72 74h151l-143 -151q90 -119 90 -299q0 -134 -39.5 -251.5t-110.5 -206t-178.5 -139.5t-236.5 -51q-209 0 -338 97l-72 -74h-151zM293 451q0 -87 22 -146l533 559 q-72 66 -199 66q-109 0 -192 -70t-123.5 -177.5t-40.5 -231.5zM377 211q72 -66 203 -66q109 0 192 70.5t123.5 178t40.5 231.5q0 78 -25 145z" />
<glyph unicode="&#xf9;" horiz-adv-x="1243" d="M92 332l131 743h211l-127 -721q-17 -97 11 -152t118 -55t201.5 52t187.5 110l136 766h210l-190 -1075h-211l25 135q-238 -158 -435 -158q-164 0 -229.5 96t-38.5 259zM434 1493h252l211 -272h-166z" />
<glyph unicode="&#xfa;" horiz-adv-x="1243" d="M92 332l131 743h211l-127 -721q-17 -97 11 -152t118 -55t201.5 52t187.5 110l136 766h210l-190 -1075h-211l25 135q-238 -158 -435 -158q-164 0 -229.5 96t-38.5 259zM545 1221l289 272h282l-383 -272h-188z" />
<glyph unicode="&#xfb;" horiz-adv-x="1243" d="M92 332l131 743h211l-127 -721q-17 -97 11 -152t118 -55t201.5 52t187.5 110l136 766h210l-190 -1075h-211l25 135q-238 -158 -435 -158q-164 0 -229.5 96t-38.5 259zM403 1221l254 272h226l161 -272h-141l-141 168l-195 -168h-164z" />
<glyph unicode="&#xfc;" horiz-adv-x="1243" d="M92 332l131 743h211l-127 -721q-17 -97 11 -152t118 -55t201.5 52t187.5 110l136 766h210l-190 -1075h-211l25 135q-238 -158 -435 -158q-164 0 -229.5 96t-38.5 259zM451 1241l36 213h197l-35 -213h-198zM809 1241l39 213h194l-36 -213h-197z" />
<glyph unicode="&#xfd;" horiz-adv-x="1148" d="M-18 -274q162 53 234 100.5t140 161.5l-233 1087h219l154 -831l450 831h236l-609 -1075q-89 -154 -126 -203q-83 -110 -210 -170q-84 -40 -206 -71zM502 1221l289 272h282l-385 -272h-186z" />
<glyph unicode="&#xfe;" horiz-adv-x="1245" d="M-31 -418l338 1911h211l-98 -551q196 156 379 156q54 0 103 -12.5t94 -41.5t77.5 -72.5t52 -110.5t19.5 -150q0 -212 -61.5 -378.5t-175.5 -261t-261 -94.5q-81 0 -157 28.5t-117 58t-94 75.5l-99 -557h-211zM307 309q146 -157 297 -157q98 0 173.5 78.5t113 199 t37.5 258.5q0 112 -50.5 174t-148.5 62q-87 0 -167.5 -43t-174.5 -121z" />
<glyph unicode="&#xff;" horiz-adv-x="1148" d="M-18 -274q162 53 234 100.5t140 161.5l-233 1087h219l154 -831l450 831h236l-609 -1075q-89 -154 -126 -203q-83 -110 -210 -170q-84 -40 -206 -71zM406 1241l36 213h199l-37 -213h-198zM764 1241l39 213h196l-38 -213h-197z" />
<glyph unicode="&#x152;" horiz-adv-x="2267" d="M123 590q0 74 11 153t37.5 164.5t65.5 164t98 149t131.5 122.5t169.5 82.5t208 30.5q328 0 487 -196l31 174h934l-31 -189h-715l-80 -436h590l-30 -184h-590l-80 -437h727l-31 -188h-946l16 100q-165 -123 -389 -123q-127 0 -229 29.5t-173.5 82.5t-119 129.5t-70 169 t-22.5 202.5zM348 592q0 -426 383 -426q86 0 161 32t128.5 86t95.5 122.5t67 145t37.5 149.5t12.5 139q0 426 -381 426q-87 0 -162 -32t-129 -86t-96 -122.5t-67 -145t-37.5 -149.5t-12.5 -139z" />
<glyph unicode="&#x153;" horiz-adv-x="1998" d="M76 451q0 134 39.5 251.5t110.5 205.5t178.5 139t236.5 51q305 0 434 -203q177 203 463 203q181 0 284 -81t103 -210q0 -186 -169.5 -270t-495.5 -84h-121v-21q0 -139 59.5 -215t175.5 -76q48 0 101 12t118 40t91 40.5t90 45.5l73 -150q-297 -152 -506 -152 q-247 0 -354 183q-155 -183 -407 -183q-237 0 -370.5 126t-133.5 348zM289 451q0 -143 69.5 -224.5t216.5 -81.5q109 0 192 70.5t124 178t41 231.5q0 142 -69.5 223.5t-217.5 81.5q-109 0 -192 -70t-123.5 -177.5t-40.5 -231.5zM1157 582h117q220 0 332 56.5t112 158.5 q0 67 -51.5 105t-136.5 38q-137 0 -236.5 -101.5t-136.5 -256.5z" />
<glyph unicode="&#x178;" horiz-adv-x="1306" d="M166 1434h231l260 -691l502 691h260l-669 -869l-99 -565h-221l100 571zM537 1550l34 213h197l-37 -213h-194zM893 1550l37 213h196l-36 -213h-197z" />
<glyph unicode="&#x2c6;" horiz-adv-x="577" d="M184 1221l254 272h226l159 -272h-141l-139 168l-195 -168h-164z" />
<glyph unicode="&#x2dc;" horiz-adv-x="608" d="M197 1300q30 44 50 70.5t47 52t56 36.5t64 11q47 0 93 -24.5t85 -49t67 -24.5q25 0 52 18.5t69 75.5l97 -63q-60 -88 -106 -128t-112 -40q-47 0 -93 24.5t-85 49t-67 24.5q-26 0 -52.5 -18.5t-68.5 -75.5z" />
<glyph unicode="&#x2000;" horiz-adv-x="974" />
<glyph unicode="&#x2001;" horiz-adv-x="1948" />
<glyph unicode="&#x2002;" horiz-adv-x="974" />
<glyph unicode="&#x2003;" horiz-adv-x="1948" />
<glyph unicode="&#x2004;" horiz-adv-x="649" />
<glyph unicode="&#x2005;" horiz-adv-x="487" />
<glyph unicode="&#x2006;" horiz-adv-x="324" />
<glyph unicode="&#x2007;" horiz-adv-x="324" />
<glyph unicode="&#x2008;" horiz-adv-x="243" />
<glyph unicode="&#x2009;" horiz-adv-x="389" />
<glyph unicode="&#x200a;" horiz-adv-x="108" />
<glyph unicode="&#x2010;" horiz-adv-x="884" d="M123 494l31 178h600l-31 -178h-600z" />
<glyph unicode="&#x2011;" horiz-adv-x="884" d="M123 494l31 178h600l-31 -178h-600z" />
<glyph unicode="&#x2012;" horiz-adv-x="884" d="M123 494l31 178h600l-31 -178h-600z" />
<glyph unicode="&#x2013;" horiz-adv-x="1150" d="M123 496l31 176h864l-29 -176h-866z" />
<glyph unicode="&#x2014;" horiz-adv-x="1366" d="M123 496l31 176h1077l-29 -176h-1079z" />
<glyph unicode="&#x2018;" horiz-adv-x="501" d="M186 905l29 299l244 271l53 -76l-154 -217h105l-45 -277h-232z" />
<glyph unicode="&#x2019;" horiz-adv-x="481" d="M176 940l154 217h-105l45 277h232l-29 -299l-244 -271z" />
<glyph unicode="&#x201a;" horiz-adv-x="514" d="M-14 -217l153 217h-106l47 276h231l-28 -299l-244 -270z" />
<glyph unicode="&#x201c;" horiz-adv-x="903" d="M186 905l29 299l244 271l53 -76l-154 -217h105l-45 -277h-232zM588 905l28 299l244 271l53 -76l-153 -217h106l-47 -277h-231z" />
<glyph unicode="&#x201d;" horiz-adv-x="882" d="M176 940l154 217h-105l45 277h232l-29 -299l-244 -271zM578 940l153 217h-104l47 277h229l-29 -299l-243 -271z" />
<glyph unicode="&#x201e;" horiz-adv-x="915" d="M-14 -217l153 217h-106l47 276h231l-28 -299l-244 -270zM387 -217l154 217h-105l47 276h228l-27 -299l-244 -270z" />
<glyph unicode="&#x2022;" horiz-adv-x="907" d="M164 582q0 119 82.5 202.5t202.5 83.5q118 0 201 -83.5t83 -202.5q0 -118 -82.5 -200.5t-201.5 -82.5q-120 0 -202.5 82t-82.5 201z" />
<glyph unicode="&#x2026;" horiz-adv-x="1394" d="M35 0l49 276h231l-47 -276h-233zM479 0l47 276h232l-45 -276h-234zM920 0l49 276h231l-47 -276h-233z" />
<glyph unicode="&#x202f;" horiz-adv-x="389" />
<glyph unicode="&#x2039;" horiz-adv-x="811" d="M49 500l23 133l696 448l-37 -223l-491 -309l381 -305l-33 -191z" />
<glyph unicode="&#x203a;" horiz-adv-x="808" d="M20 53l39 221l492 310l-379 307l31 190l538 -448l-22 -133z" />
<glyph unicode="&#x205f;" horiz-adv-x="487" />
<glyph unicode="&#x20ac;" horiz-adv-x="1460" d="M76 487l22 125h119q6 113 23 197h-105l21 127h116q81 245 253.5 382.5t387.5 137.5q67 0 134 -14.5t116.5 -33t111 -53t95.5 -57t92 -63.5l-123 -154q-121 90 -213.5 133t-189.5 43q-135 0 -246.5 -86.5t-175.5 -234.5h553l-23 -127h-573q-22 -86 -29 -197h568l-23 -125 h-541q14 -156 87 -233.5t186 -77.5q171 0 465 174l98 -172q-163 -93 -311.5 -147t-296.5 -54q-95 0 -173 29.5t-139.5 90t-98.5 159.5t-44 231h-143z" />
<glyph unicode="&#x2122;" horiz-adv-x="1314" d="M254 1348l14 86h426l-12 -86h-164l-65 -373h-103l66 373h-162zM688 975l80 459h109l104 -281l213 281h109l-80 -459h-105l53 305l-172 -229h-65l-88 237l-53 -313h-105z" />
<glyph unicode="&#x25fc;" horiz-adv-x="1075" d="M0 0v1075h1075v-1075h-1075z" />
</font>
</defs>
</svg>
