<?xml version="1.0" standalone="no"?>
<!DOCTYPE svg PUBLIC "-//W3C//DTD SVG 1.1//EN" "http://www.w3.org/Graphics/SVG/1.1/DTD/svg11.dtd" >
<svg xmlns="http://www.w3.org/2000/svg" xmlns:xlink="http://www.w3.org/1999/xlink" version="1.1">
<metadata></metadata>
<defs>
<font id="verbmedium" horiz-adv-x="1273" >
<font-face units-per-em="2048" ascent="1638" descent="-410" />
<missing-glyph horiz-adv-x="569" />
<glyph unicode="&#xfb01;" horiz-adv-x="1261" d="M59 915v160h150v117q0 301 260 301q107 0 268 -59l-55 -156q-122 33 -166 33q-45 0 -71.5 -24.5t-26.5 -86.5v-125h282v-160h-282v-915h-209v915h-150zM889 1270v217h229v-217h-229zM897 0v1075h211v-1075h-211z" />
<glyph unicode="&#xfb02;" horiz-adv-x="1275" d="M59 915v160h150v117q0 301 260 301q107 0 268 -59l-55 -156q-122 33 -166 33q-45 0 -71.5 -24.5t-26.5 -86.5v-125h282v-160h-282v-915h-209v915h-150zM903 0v1493h211v-1493h-211z" />
<glyph unicode="&#xfb03;" horiz-adv-x="2002" d="M59 915v160h150v117q0 159 68 230t196 71q77 0 172 -24.5t162 -51.5l-64 -153q-168 47 -227 47q-45 0 -71.5 -24.5t-26.5 -86.5v-125h266v-160h-266v-915h-209v915h-150zM801 915v160h149v117q0 301 260 301q108 0 269 -59l-56 -156q-122 33 -166 33q-45 0 -71.5 -24.5 t-26.5 -86.5v-125h283v-160h-283v-915h-209v915h-149zM1630 1270v217h230v-217h-230zM1638 0v1075h211v-1075h-211z" />
<glyph unicode="&#xfb04;" horiz-adv-x="2017" d="M59 915v160h150v117q0 159 68 230t196 71q77 0 172 -24.5t162 -51.5l-64 -153q-168 47 -227 47q-45 0 -71.5 -24.5t-26.5 -86.5v-125h266v-160h-266v-915h-209v915h-150zM801 915v160h149v117q0 301 260 301q108 0 269 -59l-56 -156q-122 33 -166 33q-45 0 -71.5 -24.5 t-26.5 -86.5v-125h283v-160h-283v-915h-209v915h-149zM1645 0v1493h213v-1493h-213z" />
<glyph horiz-adv-x="0" />
<glyph horiz-adv-x="682" />
<glyph unicode=" "  horiz-adv-x="569" />
<glyph unicode="&#x09;" horiz-adv-x="569" />
<glyph unicode="&#xa0;" horiz-adv-x="569" />
<glyph unicode="!" horiz-adv-x="555" d="M150 1434h256l-64 -994h-129zM162 0v262h233v-262h-233z" />
<glyph unicode="&#x22;" horiz-adv-x="854" d="M121 1434h215l-37 -541h-141zM522 1434h213l-37 -541h-139z" />
<glyph unicode="#" horiz-adv-x="1531" d="M94 352v164h287l63 399h-264v166h289l55 353h170l-55 -353h365l55 353h170l-55 -353h264v-166h-289l-64 -399h265v-164h-289l-55 -352h-168l53 352h-365l-55 -352h-170l55 352h-262zM551 516h367l61 399h-365z" />
<glyph unicode="$" horiz-adv-x="1282" d="M90 158l100 161q75 -45 177.5 -85t199.5 -58v467l-45 16q-46 16 -81 29.5t-79 34.5t-76 43t-65 53.5t-53.5 66t-33.5 81t-13 98.5q0 171 123 276t323 113v186h160v-194q212 -28 412 -129l-101 -162q-142 70 -311 102v-434l31 -10q48 -16 84.5 -29.5t84 -36t82.5 -46 t71.5 -57t59.5 -71t37.5 -87t14.5 -105.5q0 -120 -62.5 -210.5t-166.5 -137.5t-236 -53v-185h-160v191q-132 17 -258 65.5t-219 106.5zM352 1077q0 -76 53.5 -120t161.5 -80v391q-95 -10 -155 -57.5t-60 -133.5zM727 166q101 8 168.5 59.5t67.5 141.5q0 79 -59 129t-177 94 v-424z" />
<glyph unicode="%" horiz-adv-x="2048" d="M84 1071q0 183 101.5 284t275.5 101q176 0 278.5 -101t102.5 -284t-102.5 -283t-278.5 -100q-175 0 -276 100t-101 283zM252 1071q0 -118 55 -181t154 -63q102 0 157.5 63t55.5 181q0 119 -55.5 182.5t-157.5 63.5q-99 0 -154 -63.5t-55 -182.5zM559 0l750 1434h174 l-750 -1434h-174zM1202 360q0 184 101.5 284.5t277.5 100.5t277.5 -100.5t101.5 -284.5q0 -183 -101.5 -283t-277.5 -100t-277.5 100t-101.5 283zM1370 360q0 -118 55 -180.5t156 -62.5t156 62.5t55 180.5q0 119 -55 182.5t-156 63.5t-156 -63.5t-55 -182.5z" />
<glyph unicode="&#x26;" horiz-adv-x="1447" d="M135 354q0 71 23.5 133t70 113.5t93.5 89t114 80.5q-45 45 -74 80t-60 82t-46.5 98t-15.5 105q0 78 32.5 140.5t87 101t121.5 59t140 20.5q156 0 258 -85.5t102 -223.5q0 -63 -22 -119.5t-64.5 -106t-86 -87t-106.5 -82.5l324 -326q91 160 107 330h215 q-13 -107 -60 -233.5t-123 -235.5l285 -287h-256l-150 150q-192 -173 -448 -173q-199 0 -330 103.5t-131 273.5zM344 367q0 -37 14.5 -74t43.5 -72t82 -56.5t122 -21.5q174 0 309 138l-358 366q-103 -74 -158 -139t-55 -141zM436 1128q0 -67 40.5 -128t111.5 -132 q96 64 147 125.5t51 139.5q0 68 -42.5 115.5t-125.5 47.5q-85 0 -133.5 -49t-48.5 -119z" />
<glyph unicode="'" horiz-adv-x="454" d="M121 1434h215l-37 -541h-141z" />
<glyph unicode="(" horiz-adv-x="653" d="M152 121v1182q0 42 0.5 66t3.5 56.5t8 51.5t15 44.5t24.5 41t35.5 35t49 33.5t65 29.5t83 29.5t103 28l57 -131q-58 -19 -94 -33t-62.5 -32.5t-39 -31.5t-20 -40t-8.5 -48t-1 -65v-1249q0 -44 1 -65t8.5 -48t20 -40t39 -31.5t62.5 -32.5t94 -33l-57 -131 q-95 24 -160.5 46.5t-108.5 52.5t-66.5 55t-35 72t-14 82.5t-2.5 105.5z" />
<glyph unicode=")" horiz-adv-x="653" d="M55 -162q58 19 94.5 33t63 32.5t39.5 31.5t20 40t8 48t1 65v1249q0 44 -1 65t-8 48t-20 40t-39.5 31.5t-63 32.5t-94.5 33l62 131q94 -24 159 -46.5t108 -53t66 -55.5t34.5 -72t13.5 -82t2 -106v-1182q0 -70 -2 -105.5t-13.5 -82.5t-34.5 -71.5t-66 -55.5t-107.5 -53 t-159.5 -46z" />
<glyph unicode="*" horiz-adv-x="985" d="M111 926l309 110l-307 115l92 160l254 -213l-58 319h185l-56 -317l252 209l92 -160l-305 -111l305 -114l-94 -158l-248 203l54 -312h-185l58 318l-254 -209z" />
<glyph unicode="+" d="M119 600v164h436v389h166v-389h436v-164h-436v-387h-166v387h-436z" />
<glyph unicode="," horiz-adv-x="518" d="M129 -217l117 217h-105v276h228l22 -299l-194 -270z" />
<glyph unicode="-" horiz-adv-x="890" d="M143 494v178h605v-178h-605z" />
<glyph unicode="." horiz-adv-x="514" d="M139 0v276h234v-276h-234z" />
<glyph unicode="/" horiz-adv-x="940" d="M45 -184l680 1802h168l-678 -1802h-170z" />
<glyph unicode="0" horiz-adv-x="1361" d="M121 717q0 356 143 547.5t418 191.5q274 0 415.5 -191t141.5 -548t-141.5 -548.5t-415.5 -191.5q-275 0 -418 192t-143 548zM344 717q0 -275 84 -420t254 -145q336 0 336 565q0 563 -336 563q-338 0 -338 -563z" />
<glyph unicode="1" horiz-adv-x="786" d="M37 1235l360 199h203v-1434h-219v1221l-254 -134z" />
<glyph unicode="2" horiz-adv-x="1216" d="M94 0v123q0 62 13.5 118t35.5 101.5t56.5 89.5t71 79t84.5 72t91 66.5t96 64.5q1 1 2.5 1.5t2.5 1.5q161 106 216 154q111 98 111 200q0 89 -68 144t-188 55q-105 0 -206 -39.5t-176 -89.5l-103 145q245 170 508 170q211 0 333 -104t122 -273q0 -53 -14 -103.5t-34 -89.5 t-58 -81.5t-68.5 -71t-83.5 -66.5t-86 -59.5t-92 -58.5q-31 -19 -46 -29q-70 -45 -110 -75.5t-80.5 -71.5t-58 -86.5t-17.5 -100.5h750v-186h-1004z" />
<glyph unicode="3" horiz-adv-x="1228" d="M68 135l100 156q90 -52 200.5 -89.5t213.5 -37.5q136 0 223.5 67t87.5 179q0 61 -28.5 109t-73.5 78t-104.5 50t-116.5 27.5t-115 7.5h-62v188h72q92 0 172 21.5t137 73.5t57 127q0 84 -64 131t-177 47q-176 0 -365 -119l-94 141q226 164 490 164q206 0 318 -97.5 t112 -240.5q0 -106 -66.5 -192.5t-196.5 -134.5q144 -38 236 -141t92 -242q0 -83 -30 -158t-89 -137t-159.5 -99t-229.5 -37q-115 0 -235 31.5t-186.5 62.5t-118.5 64z" />
<glyph unicode="4" horiz-adv-x="1320" d="M63 303v160l678 971h287v-945h219v-186h-219v-303h-219v303h-746zM293 489h516v756z" />
<glyph unicode="5" horiz-adv-x="1206" d="M86 133l98 164q37 -25 82 -49.5t129 -52t158 -27.5q135 0 230.5 79.5t95.5 207.5q0 120 -84 201t-230 81q-142 0 -297 -86l-121 72l78 711h819v-187h-641l-30 -373q116 46 239 46q114 0 208 -37.5t155 -101.5t94 -148t33 -178q0 -93 -33 -178t-96 -152.5t-164.5 -107.5 t-228.5 -40q-244 0 -494 156z" />
<glyph unicode="6" horiz-adv-x="1275" d="M115 580q-1 206 62 374.5t170.5 276.5t248 166.5t297.5 58.5q51 0 101 -5.5t74 -10.5l24 -6l-52 -177q-65 17 -143 17q-89 0 -171.5 -28.5t-157.5 -86t-131 -157t-81 -230.5q54 58 148 103t221 45q211 0 335 -129t124 -324q0 -99 -35.5 -187.5t-100.5 -156t-163.5 -107 t-216.5 -39.5q-111 0 -203.5 34t-156 92t-108 135.5t-65 163.5t-20.5 178zM338 559q0 -174 87.5 -286.5t238.5 -112.5q74 0 133 26.5t95 70t54.5 96t18.5 108.5q0 55 -17.5 105.5t-52 92t-92.5 66.5t-131 25q-116 0 -207 -56.5t-127 -124.5v-10z" />
<glyph unicode="7" horiz-adv-x="1058" d="M59 1247v187h957v-168q-11 -13 -30 -37.5t-73.5 -104t-104.5 -161.5t-111 -203t-104.5 -237.5t-73.5 -256t-30 -266.5h-229q0 116 26.5 244.5t65 237t95 226.5t101 197.5t100.5 165.5t77 115t45 61h-711z" />
<glyph unicode="8" horiz-adv-x="1302" d="M100 375q0 63 20 118.5t50.5 96t76.5 77t90.5 61t98.5 48.5q-53 27 -94 56.5t-78.5 69.5t-57.5 92.5t-20 113.5q0 157 126.5 252.5t336.5 95.5t337.5 -95.5t127.5 -252.5q0 -61 -20 -113.5t-57.5 -92.5t-79 -69.5t-95.5 -56.5q70 -30 124.5 -63.5t106.5 -81.5t80.5 -113 t28.5 -143q0 -185 -153 -291.5t-400 -106.5t-398 106.5t-151 291.5zM324 387q0 -107 92.5 -172t232.5 -65q141 0 234.5 65t93.5 172q0 57 -27 104.5t-77 84t-102 62.5t-122 52q-70 -26 -121.5 -52t-101 -62.5t-76 -84t-26.5 -104.5zM401 1090q0 -47 22.5 -86.5t63.5 -68 t77 -46t85 -35.5q49 18 86.5 35.5t78 46t63 68t22.5 86.5q0 81 -70 139.5t-180 58.5q-107 0 -177.5 -59t-70.5 -139z" />
<glyph unicode="9" horiz-adv-x="1275" d="M90 967q0 99 36 187t101 155.5t164 107t217 39.5q138 0 246.5 -51.5t173.5 -138t98.5 -191.5t34.5 -221q1 -206 -62 -374.5t-171 -277t-248.5 -167t-298.5 -58.5q-51 0 -101 5.5t-74 11.5l-24 6l54 176q63 -16 143 -16q88 0 170.5 28t157.5 85t131.5 156t81.5 230 q-57 -57 -150.5 -101t-220.5 -44q-140 0 -245.5 61t-159.5 163t-54 229zM311 973q0 -55 17.5 -105.5t52 -92t92.5 -66.5t131 -25q118 0 208 56.5t126 125.5v8q0 174 -87.5 287t-238.5 113q-74 0 -133 -26.5t-95 -70t-54.5 -96t-18.5 -108.5z" />
<glyph unicode=":" horiz-adv-x="530" d="M147 0v276h234v-276h-234zM147 680v276h234v-276h-234z" />
<glyph unicode=";" horiz-adv-x="552" d="M147 -217l117 217h-104v276h227l23 -299l-195 -270zM160 680v276h231v-276h-231z" />
<glyph unicode="&#x3c;" d="M90 608v152l1036 426v-191l-809 -313l809 -313v-189z" />
<glyph unicode="=" d="M119 414v166h1038v-166h-1038zM119 791v163h1038v-163h-1038z" />
<glyph unicode="&#x3e;" d="M147 180v189l807 313l-807 313v191l1035 -426v-152z" />
<glyph unicode="?" horiz-adv-x="1069" d="M70 1300q87 61 211 108.5t262 47.5q120 0 218 -40t159 -122t61 -194q0 -72 -25 -132.5t-66 -105t-101 -81t-124 -61t-141 -44.5l-12 -236h-143l-17 355q212 45 311 105t99 171q0 91 -70 145t-180 54q-158 0 -344 -117zM324 0v262h231v-262h-231z" />
<glyph unicode="@" horiz-adv-x="1978" d="M109 518q0 189 63.5 351.5t178.5 281t287 186.5t380 68t372.5 -66t271.5 -184t163 -279.5t57 -355.5q0 -120 -24.5 -222t-72 -180.5t-124.5 -123.5t-176 -45q-58 0 -104.5 16.5t-74.5 41.5t-47.5 59t-28 64.5t-11.5 62.5q-159 -146 -342 -146q-60 0 -113.5 17.5t-98 52.5 t-70.5 95t-26 138q0 77 26 137.5t71 97.5t102 55.5t123 18.5q47 0 104 -8.5t136.5 -25t85.5 -17.5v105q0 102 -41.5 146t-147.5 44q-135 0 -334 -82l-63 121q238 94 422 94q162 0 243.5 -76t81.5 -241v-395q0 -40 1 -65t5 -59t13 -55.5t24 -42t39 -30t56 -9.5q35 0 70 14 t71 49t64 86t45.5 132t17.5 180q0 167 -47.5 308t-140 249t-241 169t-339.5 61q-154 0 -285 -41t-226 -114t-162.5 -172.5t-100.5 -217.5t-33 -248q0 -166 54 -311.5t151 -251t239.5 -166.5t311.5 -61q70 0 136 9.5t110.5 22.5t78.5 26t50 22l16 10l61 -76 q-6 -4 -18.5 -11.5t-55.5 -26.5t-91.5 -33t-126.5 -26t-162 -12q-189 0 -349.5 68t-270.5 186t-172 281t-62 350zM735 358q0 -90 51.5 -134t133.5 -44q150 0 297 137v197q-17 3 -74 14t-107 18t-90 7q-108 0 -159.5 -55.5t-51.5 -139.5z" />
<glyph unicode="A" horiz-adv-x="1421" d="M41 0l549 1434h239l551 -1434h-239l-115 328h-633l-114 -328h-238zM455 506h510l-256 731z" />
<glyph unicode="B" horiz-adv-x="1392" d="M182 0v1434h525q247 0 377 -91t130 -260q0 -72 -24.5 -133t-62 -98.5t-77.5 -60.5t-77 -29q38 -5 77.5 -19.5t84 -44t79 -70.5t57.5 -104.5t23 -140.5q0 -181 -124 -282t-367 -101h-621zM401 174h369q152 0 229.5 66t77.5 178q0 252 -370 252h-306v-496zM401 836h291 q139 0 222 53.5t83 161.5q0 98 -73.5 153.5t-223.5 55.5h-299v-424z" />
<glyph unicode="C" horiz-adv-x="1331" d="M117 717q0 150 29.5 273.5t82 209t125 144t156.5 85.5t180 27q78 0 155.5 -17t153 -50.5t132.5 -64.5t131 -77l-111 -160q-61 38 -102.5 61t-103 52t-120 43t-114.5 14q-166 0 -266.5 -144t-100.5 -396t100.5 -396.5t266.5 -144.5q56 0 114.5 14t120 43t103 52t102.5 61 l111 -160q-74 -46 -131 -77t-132.5 -64.5t-153 -50.5t-155.5 -17q-120 0 -222 44.5t-181.5 132t-124.5 232t-45 331.5z" />
<glyph unicode="D" horiz-adv-x="1456" d="M182 0v1434h465q337 0 514.5 -172t177.5 -545t-177.5 -545t-514.5 -172h-465zM401 188h230q250 0 366.5 124t116.5 405q0 280 -116.5 404t-366.5 124h-230v-1057z" />
<glyph unicode="E" horiz-adv-x="1241" d="M182 0v1434h940v-189h-721v-436h594v-184h-594v-437h734v-188h-953z" />
<glyph unicode="F" horiz-adv-x="1181" d="M182 0v1434h940v-189h-721v-436h576v-186h-576v-623h-219z" />
<glyph unicode="G" horiz-adv-x="1447" d="M117 717q0 187 45.5 331.5t125.5 232t182.5 131.5t223.5 44q157 0 300 -59.5t296 -159.5l-110 -162q-57 35 -83.5 50.5t-85.5 46t-99 45t-94.5 27.5t-102.5 13q-168 0 -269.5 -144t-101.5 -396q0 -253 100 -402t271 -149q176 0 387 194v256h-377v179h588v-795h-211v160 q-215 -183 -426 -183q-90 0 -171.5 27t-152.5 86t-123 144t-82 209t-30 274z" />
<glyph unicode="H" horiz-adv-x="1472" d="M182 0v1434h219v-590h668v590h221v-1434h-221v659h-668v-659h-219z" />
<glyph unicode="I" horiz-adv-x="583" d="M182 0v1434h219v-1434h-219z" />
<glyph unicode="J" horiz-adv-x="585" d="M-57 -156q37 12 64.5 21.5t52 20.5t41 18t30 19t21.5 19t14.5 22.5t9 24.5t4.5 29.5t2 33v40.5v2v1340h221v-1330q0 -76 -2 -110.5t-12.5 -85t-33.5 -74.5t-66.5 -56t-109.5 -54t-163 -46z" />
<glyph unicode="K" horiz-adv-x="1370" d="M182 0v1434h219v-768l639 768h260l-581 -686l633 -748h-265l-499 594l-187 -223v-371h-219z" />
<glyph unicode="L" horiz-adv-x="1148" d="M182 0v1434h219v-1246h699v-188h-918z" />
<glyph unicode="M" horiz-adv-x="1736" d="M182 0v1434h228l458 -955l457 955h229v-1434h-219v1077l-401 -837h-131l-402 835v-1075h-219z" />
<glyph unicode="N" horiz-adv-x="1505" d="M182 0v1434h226l694 -1108v1108h221v-1434h-225l-697 1108v-1108h-219z" />
<glyph unicode="O" horiz-adv-x="1529" d="M115 717q0 126 22 234.5t71.5 202.5t124 160t184.5 104t247 38q138 0 248 -38t185 -104t124.5 -160t71.5 -202.5t22 -234.5t-22 -234t-72 -202.5t-124 -161t-184.5 -104.5t-248.5 -38q-137 0 -247 38t-184.5 104.5t-124 161t-71.5 202.5t-22 234zM342 717 q0 -96 13.5 -176t44.5 -150.5t79 -119t120.5 -76t164.5 -27.5q115 0 199 41.5t132 118t70.5 172.5t22.5 217q0 120 -22.5 216t-70.5 172.5t-132 118.5t-199 42t-198.5 -42t-131.5 -118.5t-70 -172.5t-22 -216z" />
<glyph unicode="P" horiz-adv-x="1337" d="M182 0v1434h539q259 0 403 -108.5t144 -338.5q0 -446 -547 -446h-320v-541h-219zM401 725h316q327 0 327 262q0 260 -327 260h-316v-522z" />
<glyph unicode="Q" horiz-adv-x="1529" d="M115 717q0 126 22 234.5t71.5 202.5t124 160t184.5 104t247 38q138 0 248 -38t185 -104t124.5 -160t71.5 -202.5t22 -234.5q0 -171 -40.5 -309t-134.5 -244.5t-236 -151.5l233 -186l-147 -152l-326 303q-137 0 -247 38t-184.5 104.5t-124 161t-71.5 202.5t-22 234z M342 717q0 -96 13.5 -176t44.5 -150.5t79 -119t120.5 -76t164.5 -27.5q115 0 199 41.5t132 118t70.5 172.5t22.5 217q0 120 -22.5 216t-70.5 172.5t-132 118.5t-199 42t-198.5 -42t-131.5 -118.5t-70 -172.5t-22 -216z" />
<glyph unicode="R" horiz-adv-x="1417" d="M182 0v1434h582q551 0 551 -422q0 -351 -381 -412l383 -600h-242l-362 590h-312v-590h-219zM401 768h353q336 0 336 244q0 243 -328 243h-361v-487z" />
<glyph unicode="S" horiz-adv-x="1271" d="M84 158l100 161q104 -61 245 -108t253 -47q115 0 194.5 52.5t79.5 150.5q0 27 -6 50t-22 43t-31 36t-45.5 33t-51 28t-63.5 27t-67 24.5t-76.5 26.5t-79.5 27q-66 22 -113.5 41.5t-105.5 54t-94 74.5t-61 100t-25 133q0 179 132.5 285t344.5 106q133 0 280.5 -40 t260.5 -99l-101 -162q-97 48 -218.5 81.5t-211.5 33.5q-109 0 -183.5 -49t-74.5 -144q0 -33 10 -60t33.5 -48.5t47.5 -37t65.5 -32t74 -27.5t87 -28.5t90.5 -30.5q48 -16 84.5 -29.5t84 -36t82.5 -46t71.5 -57t59.5 -71t37.5 -87t14.5 -105.5q0 -187 -142.5 -295.5 t-357.5 -108.5q-158 0 -321.5 54t-280.5 127z" />
<glyph unicode="T" horiz-adv-x="1193" d="M45 1245v189h1102v-189h-440v-1245h-220v1245h-442z" />
<glyph unicode="U" horiz-adv-x="1452" d="M170 543v891h219v-904q0 -65 8 -116t30.5 -98.5t59.5 -79t97.5 -50t142.5 -18.5q81 0 141 18.5t97 50t59 79t30.5 98.5t8.5 116v904h221v-891q0 -99 -16 -180t-55 -154.5t-101 -123.5t-160 -79t-225 -29q-128 0 -226 29t-160 79t-101 123.5t-54.5 154.5t-15.5 180z" />
<glyph unicode="V" horiz-adv-x="1415" d="M37 1434h252l418 -1203l419 1203h250l-549 -1434h-239z" />
<glyph unicode="W" horiz-adv-x="1947" d="M57 1434h248l277 -1158l297 1158h192l297 -1158l279 1158h247l-399 -1434h-227l-293 1120l-293 -1120h-227z" />
<glyph unicode="X" horiz-adv-x="1302" d="M33 0l489 717l-465 717h254l338 -584l340 584h254l-465 -717l490 -717h-262l-357 569l-354 -569h-262z" />
<glyph unicode="Y" horiz-adv-x="1320" d="M29 1434h247l386 -693l382 693h248l-522 -867v-567h-219v567z" />
<glyph unicode="Z" horiz-adv-x="1284" d="M80 0v172l821 1073h-776v189h1057v-172l-824 -1074h834v-188h-1112z" />
<glyph unicode="[" horiz-adv-x="714" d="M166 -295v2013h485v-137h-264v-1737h264v-139h-485z" />
<glyph unicode="\" horiz-adv-x="940" d="M45 1618h168l680 -1802h-168z" />
<glyph unicode="]" horiz-adv-x="714" d="M61 -156h267v1737h-267v137h486v-2013h-486v139z" />
<glyph unicode="^" d="M139 696l387 738h215l389 -738h-231l-264 549l-266 -549h-230z" />
<glyph unicode="_" horiz-adv-x="1449" d="M143 -162h1166v-155h-1166v155z" />
<glyph unicode="`" horiz-adv-x="452" d="M-35 1493h266l254 -272h-174z" />
<glyph unicode="a" horiz-adv-x="1193" d="M84 324q0 87 30 155t82.5 110t120.5 63.5t146 21.5q56 0 125.5 -10t155 -27t96.5 -19v109q0 108 -47 156.5t-168 48.5q-79 0 -170.5 -22t-227.5 -66l-71 151q288 103 501 103q199 0 296.5 -87.5t97.5 -283.5v-727h-211v137q-173 -160 -394 -160q-72 0 -135.5 21.5 t-115 62.5t-81.5 109t-30 154zM299 338q0 -97 55.5 -144t151.5 -47q169 0 334 144v211q-12 2 -60 11.5t-80.5 15t-79 11t-81.5 5.5q-125 0 -182.5 -56.5t-57.5 -150.5z" />
<glyph unicode="b" horiz-adv-x="1249" d="M154 0v1493h211v-551q177 156 372 156q185 0 299.5 -140.5t114.5 -420.5q0 -279 -114.5 -419.5t-299.5 -140.5q-198 0 -372 154v-131h-211zM365 311q65 -73 148 -116t173 -43q123 0 186.5 100.5t63.5 284.5q0 185 -63.5 286t-186.5 101q-89 0 -172.5 -44.5t-148.5 -117.5 v-451z" />
<glyph unicode="c" horiz-adv-x="1069" d="M96 539q0 137 39 246t105.5 176t150.5 102t178 35q62 0 125.5 -13t128.5 -40t95 -41.5t83 -42.5l-92 -158q-5 2 -29 15.5t-38.5 20.5t-42 20.5t-50 21.5t-50 17t-54 13t-51.5 4q-123 0 -202 -102.5t-79 -273.5t79 -275t202 -104q25 0 51.5 4t54 13t50 17t50 21.5t42 20.5 t38.5 20.5t29 15.5l92 -157q-253 -138 -432 -138q-94 0 -178 35.5t-150.5 103t-105.5 177t-39 246.5z" />
<glyph unicode="d" horiz-adv-x="1249" d="M98 537q0 280 114.5 420.5t299.5 140.5q201 0 373 -156v551h211v-1493h-211v131q-174 -154 -373 -154q-185 0 -299.5 140.5t-114.5 419.5zM313 537q0 -184 63.5 -284.5t186.5 -100.5q87 0 171.5 43.5t150.5 115.5v451q-67 73 -151 117.5t-171 44.5q-123 0 -186.5 -101 t-63.5 -286z" />
<glyph unicode="e" horiz-adv-x="1181" d="M96 537q0 265 140 413t372 148q228 0 350.5 -129.5t122.5 -339.5q0 -36 -3.5 -71.5t-7.5 -53.5l-3 -17h-752q10 -163 86 -254.5t199 -91.5q63 0 143.5 25.5t130.5 50t125 64.5l91 -136q-49 -28 -70.5 -40t-83.5 -41.5t-108 -44.5t-113.5 -28.5t-130.5 -13.5 q-101 0 -188.5 35t-155 103t-106 176.5t-38.5 245.5zM315 614h557v14q0 154 -66 231q-69 81 -198 81q-126 0 -202 -86.5t-91 -239.5z" />
<glyph unicode="f" horiz-adv-x="743" d="M59 915v160h150v117q0 159 68 230t196 71q77 0 172 -24.5t162 -51.5l-76 -153q-153 47 -215 47q-45 0 -71.5 -24.5t-26.5 -86.5v-125h282v-160h-282v-915h-209v915h-150z" />
<glyph unicode="g" horiz-adv-x="1249" d="M98 537q0 280 114.5 420.5t299.5 140.5q201 0 373 -156v133h211v-1118q0 -395 -428 -395q-111 0 -253.5 22t-267.5 58l43 174q273 -80 443 -80q131 0 191.5 49t60.5 164v182q-174 -154 -373 -154q-185 0 -299.5 140.5t-114.5 419.5zM313 537q0 -184 63.5 -284.5 t186.5 -100.5q87 0 171.5 43.5t150.5 115.5v451q-67 73 -151 117.5t-171 44.5q-123 0 -186.5 -101t-63.5 -286z" />
<glyph unicode="h" horiz-adv-x="1255" d="M154 0v1493h211v-561q236 166 434 166q85 0 146.5 -25t96.5 -72t51.5 -105t16.5 -132v-764h-211v721q0 98 -38 152.5t-132 54.5q-92 0 -195 -52.5t-169 -111.5v-764h-211z" />
<glyph unicode="i" horiz-adv-x="518" d="M145 1270v217h230v-217h-230zM152 0v1075h210v-1075h-210z" />
<glyph unicode="j" horiz-adv-x="518" d="M-86 -287q64 21 101.5 34.5t67 32.5t42 31t20 40.5t8.5 49t1 68.5v1106h213v-1093q0 -66 -1 -96t-7.5 -76.5t-21.5 -68.5t-41.5 -53t-68.5 -50t-101.5 -40.5t-141.5 -41.5zM145 1270v217h230v-217h-230z" />
<glyph unicode="k" horiz-adv-x="1107" d="M154 0v1493h211v-942l417 524h242l-365 -430l431 -645h-226l-332 492l-167 -199v-293h-211z" />
<glyph unicode="l" horiz-adv-x="532" d="M162 0v1493h211v-1493h-211z" />
<glyph unicode="m" horiz-adv-x="1894" d="M154 0v1075h211v-151q74 68 176.5 121t210.5 53q225 0 284 -195q32 31 71.5 61t93.5 62t118.5 52t126.5 20q160 0 231.5 -90.5t71.5 -243.5v-764h-211v721q0 96 -35.5 151.5t-126.5 55.5q-84 0 -171 -52.5t-150 -121.5v-754h-209v721q0 96 -36.5 151.5t-127.5 55.5 q-81 0 -166.5 -50.5t-150.5 -117.5v-760h-211z" />
<glyph unicode="n" horiz-adv-x="1255" d="M154 0v1075h211v-143q236 166 434 166q85 0 146.5 -25t96.5 -72t51.5 -105t16.5 -132v-764h-211v721q0 98 -38 152.5t-132 54.5q-92 0 -195 -52.5t-169 -111.5v-764h-211z" />
<glyph unicode="o" horiz-adv-x="1239" d="M96 537q0 265 135 413t387 148q251 0 387 -148t136 -413t-136 -412.5t-387 -147.5q-252 0 -387 148t-135 412zM311 537q0 -187 75.5 -289.5t231.5 -102.5t232 103t76 289q0 187 -76 290t-232 103t-231.5 -103t-75.5 -290z" />
<glyph unicode="p" horiz-adv-x="1249" d="M154 -418v1493h211v-133q172 156 372 156q185 0 299.5 -140.5t114.5 -420.5q0 -279 -114.5 -419.5t-299.5 -140.5q-198 0 -372 154v-549h-211zM365 311q65 -73 148 -116t173 -43q123 0 186.5 100.5t63.5 284.5q0 185 -63.5 286t-186.5 101q-89 0 -172.5 -44.5 t-148.5 -117.5v-451z" />
<glyph unicode="q" horiz-adv-x="1249" d="M98 537q0 280 114.5 420.5t299.5 140.5q201 0 373 -156v133h211v-1493h-211v549q-174 -154 -373 -154q-185 0 -299.5 140.5t-114.5 419.5zM313 537q0 -184 63.5 -284.5t186.5 -100.5q87 0 171.5 43.5t150.5 115.5v451q-67 73 -151 117.5t-171 44.5q-123 0 -186.5 -101 t-63.5 -286z" />
<glyph unicode="r" horiz-adv-x="815" d="M154 0v1075h211v-227q7 19 21 44t48 64t76.5 68.5t111.5 49.5q53 15 111 14q18 0 37 -1v-200q-74 0 -137 -19t-103.5 -48.5t-72 -66t-48.5 -73t-27.5 -66t-13.5 -48.5l-3 -19v-547h-211z" />
<glyph unicode="s" horiz-adv-x="1062" d="M78 111l90 155q88 -48 203 -84.5t200 -36.5q84 0 143.5 34.5t59.5 94.5q0 27 -10.5 49.5t-34.5 40.5t-45.5 30.5t-61 26t-62.5 20t-67 18.5q-20 5 -30 8q-59 16 -103 31t-96 43t-85.5 60.5t-56 82.5t-22.5 111q0 139 106.5 221t285.5 82q217 0 448 -111l-90 -145 q-83 37 -179.5 63.5t-170.5 26.5q-85 0 -137 -33.5t-52 -93.5q0 -24 8.5 -44.5t28.5 -36.5t37 -27.5t51 -23t52 -17t58 -16t52 -13.5q90 -23 155.5 -50.5t120.5 -67.5t83 -96t28 -128q0 -147 -113 -227.5t-290 -80.5q-133 0 -268.5 40.5t-235.5 93.5z" />
<glyph unicode="t" horiz-adv-x="811" d="M63 915v160h150v271l209 40v-311h295v-160h-295v-643q0 -62 26 -86t72 -24q68 0 193 53l78 -158q-58 -29 -144.5 -54.5t-169.5 -25.5q-264 0 -264 302v636h-150z" />
<glyph unicode="u" horiz-adv-x="1255" d="M145 311v764h211v-721q0 -98 38 -152.5t134 -54.5q90 0 193 51.5t170 110.5v766h211v-1075h-211v143q-229 -166 -436 -166q-163 0 -236.5 90.5t-73.5 243.5z" />
<glyph unicode="v" horiz-adv-x="1157" d="M45 1075h229l304 -858l305 858h231l-432 -1075h-207z" />
<glyph unicode="w" horiz-adv-x="1683" d="M55 1075h226l225 -856l246 856h184l246 -856l225 856h223l-336 -1075h-202l-248 823l-248 -823h-205z" />
<glyph unicode="x" horiz-adv-x="1196" d="M29 0l442 541l-418 534h246l299 -418l299 418h248l-420 -534l444 -541h-256l-315 426l-313 -426h-256z" />
<glyph unicode="y" horiz-adv-x="1157" d="M45 1075h229l306 -825l303 825h231l-600 -1493h-229l188 422z" />
<glyph unicode="z" horiz-adv-x="1077" d="M82 0v156l635 743h-615v176h885v-155l-633 -744h633v-176h-905z" />
<glyph unicode="{" horiz-adv-x="806" d="M45 633v160q115 0 166 57.5t33 185.5l-27 191q-32 239 95 365t399 126h37v-135h-37q-73 0 -126.5 -18.5t-83.5 -50t-47.5 -73.5t-18.5 -90t3 -98l25 -178q20 -160 -39 -247t-197 -115q138 -30 197 -117.5t39 -245.5l-25 -178q-39 -330 273 -330h37v-135h-37 q-272 0 -399 126.5t-95 365.5l27 190q18 128 -33.5 186t-165.5 58z" />
<glyph unicode="|" horiz-adv-x="499" d="M168 -252v1927h162v-1927h-162z" />
<glyph unicode="}" horiz-adv-x="806" d="M61 -158h39q89 0 149.5 28t86.5 74t35.5 105.5t-2.5 122.5l-23 178q-21 158 37.5 245.5t196.5 117.5q-138 28 -196.5 115t-37.5 247l23 178q5 50 4.5 98t-18 90t-47 73.5t-83 50t-125.5 18.5h-39v135h39q271 0 397.5 -126t92.5 -365l-25 -191q-18 -128 33 -185.5 t166 -57.5v-160q-114 0 -164.5 -58t-32.5 -186l25 -190q34 -239 -93.5 -365.5t-398.5 -126.5h-39v135z" />
<glyph unicode="~" d="M59 461q120 264 332 264q68 0 139 -23.5t121.5 -52.5t115 -52.5t120.5 -23.5q35 0 62.5 9t62 41t65.5 88l133 -56q-117 -262 -331 -262q-67 0 -138 23.5t-122.5 52.5t-116 52.5t-119.5 23.5q-54 0 -97.5 -28t-90.5 -109z" />
<glyph unicode="&#xa1;" horiz-adv-x="555" d="M150 0l61 993h131l64 -993h-256zM162 1171v263h233v-263h-233z" />
<glyph unicode="&#xa2;" horiz-adv-x="1146" d="M113 719q0 131 35.5 237t97.5 173t140 104.5t167 42.5v158h160v-170q134 -30 327 -138l-92 -155q-9 5 -42.5 23t-58.5 31t-63 29t-71 25v-725q90 25 235 111l92 -156q-58 -32 -89.5 -49t-103 -46t-134.5 -42v-172h-160v158q-89 6 -167 44t-140 106t-97.5 174t-35.5 237z M330 719q0 -150 61 -249.5t162 -123.5v744q-101 -24 -162 -122.5t-61 -248.5z" />
<glyph unicode="&#xa3;" horiz-adv-x="1155" d="M119 0v154q10 6 25.5 16.5t56.5 47.5t73.5 77t60.5 102.5t32 126.5h-226v140h205q-16 45 -49 102.5t-60.5 100.5t-49 107t-21.5 130q0 160 111 256t301 96q72 0 141 -13.5t136.5 -41t105 -46t98.5 -52.5l-103 -148q-215 115 -346 115q-108 0 -166.5 -56.5t-58.5 -140.5 q0 -49 22 -102t50.5 -93.5t60 -99.5t45.5 -114h334v-140h-324q-11 -106 -68 -200.5t-108 -137.5h637v-186h-915z" />
<glyph unicode="&#xa5;" horiz-adv-x="1398" d="M68 1434h247l385 -693l383 693h248l-420 -697h287v-137h-371l-18 -33v-102h389v-137h-389v-328h-219v328h-389v137h389v102l-21 33h-368v137h286z" />
<glyph unicode="&#xa6;" horiz-adv-x="503" d="M170 -252v846h162v-846h-162zM170 829v846h162v-846h-162z" />
<glyph unicode="&#xa7;" horiz-adv-x="1142" d="M109 662q0 176 190 243q-149 88 -149 248q0 139 107 221t286 82q116 0 234 -32.5t210 -77.5l-90 -146q-82 37 -178 63.5t-174 26.5q-85 0 -136 -33t-51 -92q0 -19 5 -35.5t17 -30.5t23.5 -25t33 -21t36.5 -17t43 -15t43 -12.5t46 -12.5t44 -11q88 -24 151.5 -50 t120.5 -65t86 -94.5t29 -126.5q0 -180 -192 -248q149 -88 149 -245q0 -139 -106 -221t-285 -82q-117 0 -235.5 32.5t-210.5 77.5l90 146q202 -91 352 -91q85 0 134.5 33.5t49.5 91.5q0 22 -8 41.5t-19 33t-33 27t-37.5 21.5t-46.5 18t-46.5 14t-50 12.5t-45.5 11.5 q-86 22 -152 50t-121 68.5t-84.5 96.5t-29.5 125zM311 682q0 -32 18 -59.5t43 -45.5t64.5 -34.5t68.5 -25t70.5 -19.5t55.5 -15l12 -4q88 11 139.5 50t51.5 96q0 14 -3.5 28t-22 39t-50 46t-95.5 45.5t-151 41.5l-12 2q-88 -9 -138.5 -48t-50.5 -97z" />
<glyph unicode="&#xa8;" horiz-adv-x="485" d="M-31 1241v207h193v-207h-193zM324 1241v207h190v-207h-190z" />
<glyph unicode="&#xa9;" horiz-adv-x="1689" d="M115 717q0 156 49 290.5t140 234.5t230.5 157t311.5 57t311 -57t230 -157t139.5 -234.5t48.5 -290.5t-48.5 -290.5t-139.5 -234.5t-230 -157.5t-311 -57.5t-311.5 57.5t-230.5 157.5t-140 234.5t-49 290.5zM197 717q0 -141 43 -261t123 -209.5t204 -140.5t277 -51 q154 0 278.5 51t205 140.5t124 209.5t43.5 261t-43.5 261t-124 209.5t-205 140t-278.5 50.5q-203 0 -351.5 -88t-222 -236t-73.5 -337zM475 715q0 212 101.5 329t254.5 117q72 0 143.5 -23t109.5 -45.5t90 -58.5l-64 -73q-38 30 -68 49.5t-88.5 40t-117.5 20.5 q-114 0 -184 -97.5t-70 -258.5q0 -159 70 -256t184 -97q59 0 118 20.5t87.5 38.5t68.5 48l64 -72q-52 -36 -90 -58.5t-109.5 -45.5t-143.5 -23q-152 0 -254 117t-102 328z" />
<glyph unicode="&#xaa;" horiz-adv-x="866" d="M100 985q0 99 68.5 154t175.5 55q63 0 231 -33v58q0 58 -29 84t-100 26q-80 0 -249 -49l-50 106q196 62 324 62q132 0 195 -55t63 -179v-426h-154v80q-107 -94 -243 -94q-98 0 -165 55.5t-67 155.5zM258 995q0 -51 32.5 -75.5t88.5 -24.5q102 0 196 78v108 q-134 25 -176 25q-73 0 -107 -30t-34 -81z" />
<glyph unicode="&#xab;" horiz-adv-x="1402" d="M72 500v133l624 448v-207l-442 -309l442 -307v-205zM655 500v133l627 448v-207l-442 -309l442 -307v-205z" />
<glyph unicode="&#xac;" d="M37 600v164h1190v-580h-180v416h-1010z" />
<glyph unicode="&#xad;" horiz-adv-x="890" d="M143 494v178h605v-178h-605z" />
<glyph unicode="&#xae;" horiz-adv-x="1030" d="M111 1024q0 178 108 294t297 116q188 0 296 -116t108 -294t-108 -294t-296 -116q-189 0 -297 116t-108 294zM184 1024q0 -152 85 -247t247 -95q161 0 245.5 95t84.5 247t-84.5 247t-245.5 95q-162 0 -247 -95t-85 -247zM365 823v412h190q64 0 101.5 -33t37.5 -86 q0 -41 -28.5 -72.5t-73.5 -42.5l96 -178h-76l-90 174h-90v-174h-67zM432 1061h121q72 0 72 55q0 58 -68 58h-125v-113z" />
<glyph unicode="&#xaf;" horiz-adv-x="608" d="M0 1272v135h608v-135h-608z" />
<glyph unicode="&#xb0;" horiz-adv-x="884" d="M94 1087q0 143 103 246t247 103q142 0 245.5 -103t103.5 -246q0 -144 -103 -247t-246 -103q-145 0 -247.5 102.5t-102.5 247.5zM227 1087q0 -91 63 -154t154 -63q89 0 152 63t63 154q0 89 -63 152.5t-152 63.5q-90 0 -153.5 -63.5t-63.5 -152.5z" />
<glyph unicode="&#xb1;" d="M119 0v145h1038v-145h-1038zM119 614v164h430v316h168v-316h440v-164h-440v-317h-168v317h-430z" />
<glyph unicode="&#xb2;" horiz-adv-x="813" d="M72 788v80q0 51 17.5 97t40.5 78.5t66.5 69t74.5 57.5t85 55q9 5 26 16q49 30 72.5 45.5t53 40t41.5 47.5t12 49q0 46 -40 76.5t-111 30.5q-63 0 -129 -25t-111 -55l-74 104q170 109 334 109q136 0 214.5 -65.5t78.5 -167.5q0 -57 -22 -104t-71 -88.5t-83.5 -64.5 t-103.5 -62q-13 -7 -19 -11q-83 -50 -122.5 -88t-39.5 -90h463v-134h-653z" />
<glyph unicode="&#xb3;" horiz-adv-x="813" d="M53 877l74 108q138 -78 264 -78q80 0 130 35.5t50 95.5q0 42 -25.5 72t-67.5 45.5t-84.5 22t-88.5 6.5h-43v133h49q86 0 153.5 29.5t67.5 89.5q0 44 -36.5 69t-100.5 25q-106 0 -233 -72l-66 101q23 18 59.5 38.5t111.5 43t151 22.5q134 0 205 -59.5t71 -147.5 q0 -64 -41 -114.5t-118 -77.5q88 -24 143 -85t55 -143q0 -108 -80.5 -185t-242.5 -77q-181 0 -357 103z" />
<glyph unicode="&#xb4;" horiz-adv-x="452" d="M-35 1221l254 272h266l-344 -272h-176z" />
<glyph unicode="&#xb5;" horiz-adv-x="1257" d="M168 -418v1493h211v-721q0 -98 38 -152.5t132 -54.5q91 0 193.5 51.5t170.5 110.5v766h211v-1075h-211v143q-229 -166 -436 -166q-45 0 -98 11v-406h-211z" />
<glyph unicode="&#xb6;" horiz-adv-x="1366" d="M74 977q0 228 136.5 342.5t391.5 114.5h182v-1813h-186v897q-237 0 -380.5 117t-143.5 342zM991 -381v1815h187v-1815h-187z" />
<glyph unicode="&#xb7;" horiz-adv-x="520" d="M143 444v277h234v-277h-234z" />
<glyph unicode="&#xb8;" horiz-adv-x="360" d="M-12 -319l49 116q56 -26 102 -26q49 0 79 21.5t30 66.5q0 32 -15.5 68t-30.5 57l-16 20h103q3 -4 9 -10t20.5 -26.5t25.5 -41.5t20 -51t9 -59q0 -83 -60.5 -128.5t-156.5 -45.5q-89 0 -168 39z" />
<glyph unicode="&#xb9;" horiz-adv-x="546" d="M33 1524l233 125h152v-861h-162v709l-158 -78z" />
<glyph unicode="&#xba;" horiz-adv-x="876" d="M100 1110q0 160 87.5 249t250.5 89q161 0 248.5 -89t87.5 -249q0 -159 -87 -247.5t-249 -88.5q-163 0 -250.5 89t-87.5 247zM256 1110q0 -215 182 -215q180 0 180 215q0 217 -180 217q-182 0 -182 -217z" />
<glyph unicode="&#xbb;" horiz-adv-x="1402" d="M121 53v207l442 305l-442 309v205l627 -446v-133zM707 53v207l442 305l-442 309v205l624 -446v-133z" />
<glyph unicode="&#xbc;" horiz-adv-x="1720" d="M59 1309l234 125h151v-861h-161v709l-158 -78zM342 0l680 1434h170l-680 -1434h-170zM864 174v113l420 573h213v-555h139v-131h-139v-174h-162v174h-471zM1030 305h305v426z" />
<glyph unicode="&#xbd;" horiz-adv-x="1759" d="M59 1309l234 125h151v-861h-161v709l-158 -78zM342 0l680 1434h170l-680 -1434h-170zM995 0v80q0 51 17.5 97t40.5 78t67 69t74.5 57.5t85.5 54.5q117 72 148 99q56 50 57 100q0 46 -40.5 76t-111.5 30q-64 0 -128.5 -24.5t-110.5 -54.5l-74 104q169 108 334 108 q136 0 214.5 -65.5t78.5 -167.5q0 -56 -20.5 -102t-72.5 -89.5t-80 -62t-103 -62.5q-15 -9 -23 -14q-83 -49 -122.5 -87.5t-39.5 -90.5h461v-133h-652z" />
<glyph unicode="&#xbe;" horiz-adv-x="1937" d="M84 662l74 108q138 -78 264 -78q80 0 130 35.5t50 95.5q0 42 -25.5 72t-67.5 45.5t-84.5 22t-88.5 6.5h-43v133h49q86 0 153.5 29.5t67.5 89.5q0 44 -36.5 69t-102.5 25q-104 0 -231 -72l-66 100q23 19 59.5 39.5t111.5 43t151 22.5q134 0 205 -59.5t71 -147.5 q0 -64 -41.5 -114.5t-118.5 -77.5q87 -24 143 -85.5t56 -142.5q0 -50 -18.5 -95.5t-55.5 -83.5t-101.5 -60.5t-148.5 -22.5q-187 0 -356 103zM565 0l680 1434h170l-680 -1434h-170zM1085 174v113l422 573h211v-555h140v-131h-140v-174h-159v174h-474zM1253 305h306v426z" />
<glyph unicode="&#xbf;" horiz-adv-x="1067" d="M88 334q0 89 36 160.5t102 121t142.5 83.5t174.5 59l14 235h145l15 -354q-210 -45 -309 -106t-99 -171q0 -91 68 -144.5t180 -53.5q154 0 344 117l98 -150q-89 -60 -212.5 -107t-262.5 -47q-119 0 -216.5 40t-158.5 122.5t-61 194.5zM512 1171v263h233v-263h-233z" />
<glyph unicode="&#xc0;" horiz-adv-x="1421" d="M41 0l549 1434h239l551 -1434h-239l-115 328h-633l-114 -328h-238zM367 1802h266l254 -272h-174zM455 506h510l-256 731z" />
<glyph unicode="&#xc1;" horiz-adv-x="1421" d="M41 0l549 1434h239l551 -1434h-239l-115 328h-633l-114 -328h-238zM455 506h510l-256 731zM535 1530l251 272h267l-342 -272h-176z" />
<glyph unicode="&#xc2;" horiz-adv-x="1421" d="M41 0l549 1434h239l551 -1434h-239l-115 328h-633l-114 -328h-238zM389 1530l207 272h227l209 -272h-153l-168 168l-168 -168h-154zM455 506h510l-256 731z" />
<glyph unicode="&#xc3;" horiz-adv-x="1421" d="M41 0l549 1434h239l551 -1434h-239l-115 328h-633l-114 -328h-238zM369 1597q25 48 40.5 73t41 55.5t54.5 43.5t66 13q45 0 98.5 -25t99 -49.5t71.5 -24.5q25 0 48 18.5t54 76.5l107 -47q-21 -44 -38.5 -73t-42 -57.5t-55 -42.5t-67.5 -14q-44 0 -96.5 24.5t-98 49 t-71.5 24.5q-27 0 -50 -18t-55 -76zM455 506h510l-256 731z" />
<glyph unicode="&#xc4;" horiz-adv-x="1421" d="M41 0l549 1434h239l551 -1434h-239l-115 328h-633l-114 -328h-238zM438 1554v205h193v-205h-193zM455 506h510l-256 731zM793 1554v205h190v-205h-190z" />
<glyph unicode="&#xc5;" horiz-adv-x="1421" d="M41 0l549 1434h239l551 -1434h-239l-115 328h-633l-114 -328h-238zM455 506h510l-256 731zM496 1729q0 91 63 155t154 64t155 -64t64 -155t-64 -155.5t-155 -64.5q-90 0 -153.5 64.5t-63.5 155.5zM606 1729q0 -44 31.5 -75.5t75.5 -31.5t75 31.5t31 75.5t-31 75t-75 31 t-75.5 -31t-31.5 -75z" />
<glyph unicode="&#xc6;" horiz-adv-x="2099" d="M-29 0l981 1434h1028v-189h-720v-436h595v-184h-595v-437h735v-188h-957v328h-589l-218 -328h-260zM569 510h469v707z" />
<glyph unicode="&#xc7;" horiz-adv-x="1331" d="M117 717q0 150 29.5 273.5t82 209t125 144t156.5 85.5t180 27q78 0 155.5 -17t153 -50.5t132.5 -64.5t131 -77l-111 -160q-61 38 -102.5 61t-103 52t-120 43t-114.5 14q-166 0 -266.5 -144t-100.5 -396t100.5 -396.5t266.5 -144.5q56 0 114.5 14t120 43t103 52t102.5 61 l111 -160q-132 -84 -252 -137t-248 -67q65 -81 65 -166q0 -83 -60.5 -128.5t-156.5 -45.5q-94 0 -168 39l47 116q56 -26 103 -26q49 0 78.5 21.5t29.5 66.5q0 47 -41 121q-115 5 -211.5 52t-171.5 134.5t-117 228.5t-42 322z" />
<glyph unicode="&#xc8;" horiz-adv-x="1241" d="M182 0v1434h940v-189h-721v-436h594v-184h-594v-437h734v-188h-953zM317 1802h265l254 -272h-177z" />
<glyph unicode="&#xc9;" horiz-adv-x="1241" d="M182 0v1434h940v-189h-721v-436h594v-184h-594v-437h734v-188h-953zM483 1530l252 272h266l-344 -272h-174z" />
<glyph unicode="&#xca;" horiz-adv-x="1241" d="M182 0v1434h940v-189h-721v-436h594v-184h-594v-437h734v-188h-953zM338 1530l207 272h225l209 -272h-154l-168 168l-165 -168h-154z" />
<glyph unicode="&#xcb;" horiz-adv-x="1241" d="M182 0v1434h940v-189h-721v-436h594v-184h-594v-437h734v-188h-953zM385 1550v207h193v-207h-193zM739 1550v207h191v-207h-191z" />
<glyph unicode="&#xcc;" horiz-adv-x="583" d="M-51 1802h266l254 -272h-176zM182 0v1434h219v-1434h-219z" />
<glyph unicode="&#xcd;" horiz-adv-x="583" d="M117 1530l254 272h266l-344 -272h-176zM182 0v1434h221v-1434h-221z" />
<glyph unicode="&#xce;" horiz-adv-x="583" d="M-29 1530l209 272h226l208 -272h-153l-168 168l-166 -168h-156zM182 0v1434h221v-1434h-221z" />
<glyph unicode="&#xcf;" horiz-adv-x="583" d="M20 1550v205h193v-205h-193zM182 0v1434h221v-1434h-221zM375 1550v205h190v-205h-190z" />
<glyph unicode="&#xd0;" horiz-adv-x="1474" d="M49 629v176h154v629h465q165 0 290.5 -40.5t216 -125.5t137 -223.5t46.5 -327.5t-46.5 -327.5t-137 -223.5t-216 -125.5t-290.5 -40.5h-465v629h-154zM424 188h227q250 0 367 124.5t117 404.5t-117 404t-367 124h-227v-440h328v-176h-328v-441z" />
<glyph unicode="&#xd1;" horiz-adv-x="1505" d="M182 0v1434h226l694 -1108v1108h221v-1434h-225l-697 1108v-1108h-219zM424 1604q46 93 90 139.5t113 46.5q44 0 96.5 -24.5t98 -49t71.5 -24.5q27 0 49 18t55 76l107 -49q-23 -46 -39.5 -73t-41.5 -56.5t-55 -43.5t-67 -14q-45 0 -98 25t-98.5 50.5t-71.5 25.5t-49 -19 t-56 -76z" />
<glyph unicode="&#xd2;" horiz-adv-x="1529" d="M115 717q0 126 22 234.5t71.5 202.5t124 160t184.5 104t247 38q138 0 248 -38t185 -104t124.5 -160t71.5 -202.5t22 -234.5t-22 -234t-72 -202.5t-124 -161t-184.5 -104.5t-248.5 -38q-137 0 -247 38t-184.5 104.5t-124 161t-71.5 202.5t-22 234zM342 717 q0 -96 13.5 -176t44.5 -150.5t79 -119t120.5 -76t164.5 -27.5q115 0 199 41.5t132 118t70.5 172.5t22.5 217q0 120 -22.5 216t-70.5 172.5t-132 118.5t-199 42t-198.5 -42t-131.5 -118.5t-70 -172.5t-22 -216zM422 1802h266l252 -272h-174z" />
<glyph unicode="&#xd3;" horiz-adv-x="1529" d="M115 717q0 126 22 234.5t71.5 202.5t124 160t184.5 104t247 38q138 0 248 -38t185 -104t124.5 -160t71.5 -202.5t22 -234.5t-22 -234t-72 -202.5t-124 -161t-184.5 -104.5t-248.5 -38q-137 0 -247 38t-184.5 104.5t-124 161t-71.5 202.5t-22 234zM342 717 q0 -96 13.5 -176t44.5 -150.5t79 -119t120.5 -76t164.5 -27.5q115 0 199 41.5t132 118t70.5 172.5t22.5 217q0 120 -22.5 216t-70.5 172.5t-132 118.5t-199 42t-198.5 -42t-131.5 -118.5t-70 -172.5t-22 -216zM588 1530l252 272h268l-344 -272h-176z" />
<glyph unicode="&#xd4;" horiz-adv-x="1529" d="M115 717q0 126 22 234.5t71.5 202.5t124 160t184.5 104t247 38q138 0 248 -38t185 -104t124.5 -160t71.5 -202.5t22 -234.5t-22 -234t-72 -202.5t-124 -161t-184.5 -104.5t-248.5 -38q-137 0 -247 38t-184.5 104.5t-124 161t-71.5 202.5t-22 234zM342 717 q0 -96 13.5 -176t44.5 -150.5t79 -119t120.5 -76t164.5 -27.5q115 0 199 41.5t132 118t70.5 172.5t22.5 217q0 120 -22.5 216t-70.5 172.5t-132 118.5t-199 42t-198.5 -42t-131.5 -118.5t-70 -172.5t-22 -216zM444 1530l207 272h226l208 -272h-153l-168 168l-166 -168h-154z " />
<glyph unicode="&#xd5;" horiz-adv-x="1529" d="M115 717q0 126 22 234.5t71.5 202.5t124 160t184.5 104t247 38q138 0 248 -38t185 -104t124.5 -160t71.5 -202.5t22 -234.5t-22 -234t-72 -202.5t-124 -161t-184.5 -104.5t-248.5 -38q-137 0 -247 38t-184.5 104.5t-124 161t-71.5 202.5t-22 234zM342 717 q0 -96 13.5 -176t44.5 -150.5t79 -119t120.5 -76t164.5 -27.5q115 0 199 41.5t132 118t70.5 172.5t22.5 217q0 120 -22.5 216t-70.5 172.5t-132 118.5t-199 42t-198.5 -42t-131.5 -118.5t-70 -172.5t-22 -216zM424 1597q47 92 90.5 138.5t112.5 46.5q44 0 96.5 -25t98 -49.5 t71.5 -24.5t48.5 18.5t55.5 76.5l107 -47q-23 -45 -40 -73t-41.5 -57.5t-54.5 -43t-67 -13.5q-45 0 -98 24.5t-98.5 49t-71.5 24.5q-27 0 -50 -18t-55 -76z" />
<glyph unicode="&#xd6;" horiz-adv-x="1529" d="M115 717q0 126 22 234.5t71.5 202.5t124 160t184.5 104t247 38q138 0 248 -38t185 -104t124.5 -160t71.5 -202.5t22 -234.5t-22 -234t-72 -202.5t-124 -161t-184.5 -104.5t-248.5 -38q-137 0 -247 38t-184.5 104.5t-124 161t-71.5 202.5t-22 234zM342 717 q0 -96 13.5 -176t44.5 -150.5t79 -119t120.5 -76t164.5 -27.5q115 0 199 41.5t132 118t70.5 172.5t22.5 217q0 120 -22.5 216t-70.5 172.5t-132 118.5t-199 42t-198.5 -42t-131.5 -118.5t-70 -172.5t-22 -216zM492 1550v207h192v-207h-192zM846 1550v207h190v-207h-190z" />
<glyph unicode="&#xd7;" d="M209 961l119 120l307 -280l305 276l123 -119l-301 -272l303 -274l-121 -117l-307 276l-303 -274l-121 119l297 270z" />
<glyph unicode="&#xd8;" horiz-adv-x="1525" d="M115 717q0 126 22 234.5t71.5 202.5t123.5 160t184 104t248 38q237 0 391 -110l68 88h168l-138 -181q160 -191 160 -536q0 -126 -22 -234t-71.5 -202.5t-123.5 -161t-184 -104.5t-248 -38q-242 0 -393 111l-66 -88h-166l135 178q-159 190 -159 539zM342 717 q0 -221 72 -357l616 818q-106 88 -266 88q-115 0 -198.5 -42t-131.5 -118.5t-70 -172.5t-22 -216zM498 254q99 -86 266 -86q115 0 198.5 41.5t132 118t71 172.5t22.5 217q0 216 -74 352z" />
<glyph unicode="&#xd9;" horiz-adv-x="1452" d="M170 543v891h219v-904q0 -65 8 -116t30.5 -98.5t59.5 -79t97.5 -50t142.5 -18.5q81 0 141 18.5t97 50t59 79t30.5 98.5t8.5 116v904h221v-891q0 -99 -16 -180t-55 -154.5t-101 -123.5t-160 -79t-225 -29q-128 0 -226 29t-160 79t-101 123.5t-54.5 154.5t-15.5 180z M385 1802h266l252 -272h-174z" />
<glyph unicode="&#xda;" horiz-adv-x="1452" d="M170 543v891h219v-904q0 -65 8 -116t30.5 -98.5t59.5 -79t97.5 -50t142.5 -18.5q81 0 141 18.5t97 50t59 79t30.5 98.5t8.5 116v904h221v-891q0 -99 -16 -180t-55 -154.5t-101 -123.5t-160 -79t-225 -29q-128 0 -226 29t-160 79t-101 123.5t-54.5 154.5t-15.5 180z M551 1530l252 272h268l-346 -272h-174z" />
<glyph unicode="&#xdb;" horiz-adv-x="1452" d="M170 543v891h219v-904q0 -65 8 -116t30.5 -98.5t59.5 -79t97.5 -50t142.5 -18.5q81 0 141 18.5t97 50t59 79t30.5 98.5t8.5 116v904h221v-891q0 -99 -16 -180t-55 -154.5t-101 -123.5t-160 -79t-225 -29q-128 0 -226 29t-160 79t-101 123.5t-54.5 154.5t-15.5 180z M408 1530l204 272h228l209 -272h-154l-168 168l-168 -168h-151z" />
<glyph unicode="&#xdc;" horiz-adv-x="1452" d="M170 543v891h219v-904q0 -65 8 -116t30.5 -98.5t59.5 -79t97.5 -50t142.5 -18.5q81 0 141 18.5t97 50t59 79t30.5 98.5t8.5 116v904h221v-891q0 -99 -16 -180t-55 -154.5t-101 -123.5t-160 -79t-225 -29q-128 0 -226 29t-160 79t-101 123.5t-54.5 154.5t-15.5 180z M455 1550v207h190v-207h-190zM807 1550v207h192v-207h-192z" />
<glyph unicode="&#xdd;" horiz-adv-x="1320" d="M29 1434h247l386 -693l382 693h248l-522 -867v-567h-219v567zM485 1530l252 272h269l-347 -272h-174z" />
<glyph unicode="&#xde;" horiz-adv-x="1357" d="M182 0v1434h219v-248h320q547 0 547 -445q0 -232 -143.5 -340t-403.5 -108h-320v-293h-219zM401 477h295q167 0 257.5 61t90.5 203t-90 201t-258 59h-295v-524z" />
<glyph unicode="&#xdf;" horiz-adv-x="1366" d="M154 0v993q0 463 542 463q543 0 543 -461v-8l-117 -119q-49 25 -127.5 48.5t-140.5 23.5q-69 0 -114.5 -36.5t-45.5 -96.5q0 -22 7 -41t15.5 -32.5t27 -27t31.5 -21t40 -17.5t40 -14.5t44.5 -14t42.5 -12.5q77 -23 134 -50.5t106.5 -67.5t75.5 -96.5t26 -127.5 q0 -148 -99.5 -228t-262.5 -80q-119 0 -243.5 40.5t-213.5 93.5l82 145q78 -47 178.5 -84t169.5 -37q74 0 126 37t52 102q0 18 -4.5 33.5t-10.5 28t-19 25t-22.5 21t-29 18.5t-31 15.5t-35.5 14.5t-36 12.5t-39 12.5t-37 12q-55 18 -92.5 33t-85.5 43t-76.5 60t-49 81.5 t-20.5 110.5q0 139 94.5 221t254.5 82q88 0 188 -27q-20 116 -98 166.5t-228 50.5q-175 0 -253 -71.5t-78 -235.5v-981h-211z" />
<glyph unicode="&#xe0;" horiz-adv-x="1193" d="M84 324q0 87 30 155t82.5 110t120.5 63.5t146 21.5q56 0 125.5 -10t155 -27t96.5 -19v109q0 108 -47 156.5t-168 48.5q-79 0 -170.5 -22t-227.5 -66l-71 151q288 103 501 103q199 0 296.5 -87.5t97.5 -283.5v-727h-211v137q-173 -160 -394 -160q-72 0 -135.5 21.5 t-115 62.5t-81.5 109t-30 154zM262 1493h266l254 -272h-178zM299 338q0 -97 55.5 -144t151.5 -47q169 0 334 144v211q-12 2 -60 11.5t-80.5 15t-79 11t-81.5 5.5q-125 0 -182.5 -56.5t-57.5 -150.5z" />
<glyph unicode="&#xe1;" horiz-adv-x="1193" d="M84 324q0 87 30 155t82.5 110t120.5 63.5t146 21.5q56 0 125.5 -10t155 -27t96.5 -19v109q0 108 -47 156.5t-168 48.5q-79 0 -170.5 -22t-227.5 -66l-71 151q288 103 501 103q199 0 296.5 -87.5t97.5 -283.5v-727h-211v137q-173 -160 -394 -160q-72 0 -135.5 21.5 t-115 62.5t-81.5 109t-30 154zM299 338q0 -97 55.5 -144t151.5 -47q169 0 334 144v211q-12 2 -60 11.5t-80.5 15t-79 11t-81.5 5.5q-125 0 -182.5 -56.5t-57.5 -150.5zM428 1221l252 272h268l-344 -272h-176z" />
<glyph unicode="&#xe2;" horiz-adv-x="1193" d="M84 324q0 87 30 155t82.5 110t120.5 63.5t146 21.5q56 0 125.5 -10t155 -27t96.5 -19v109q0 108 -47 156.5t-168 48.5q-79 0 -170.5 -22t-227.5 -66l-71 151q288 103 501 103q199 0 296.5 -87.5t97.5 -283.5v-727h-211v137q-173 -160 -394 -160q-72 0 -135.5 21.5 t-115 62.5t-81.5 109t-30 154zM283 1221l206 272h230l207 -272h-156l-168 168l-166 -168h-153zM299 338q0 -97 55.5 -144t151.5 -47q169 0 334 144v211q-12 2 -60 11.5t-80.5 15t-79 11t-81.5 5.5q-125 0 -182.5 -56.5t-57.5 -150.5z" />
<glyph unicode="&#xe3;" horiz-adv-x="1193" d="M84 324q0 87 30 155t82.5 110t120.5 63.5t146 21.5q56 0 125.5 -10t155 -27t96.5 -19v109q0 108 -47 156.5t-168 48.5q-79 0 -170.5 -22t-227.5 -66l-71 151q288 103 501 103q199 0 296.5 -87.5t97.5 -283.5v-727h-211v137q-173 -160 -394 -160q-72 0 -135.5 21.5 t-115 62.5t-81.5 109t-30 154zM264 1288q47 92 90.5 138.5t112.5 46.5q44 0 96.5 -24.5t98 -49.5t71.5 -25q27 0 50 18t55 76l106 -47q-46 -93 -90 -139.5t-113 -46.5q-45 0 -98 24.5t-98.5 49t-71.5 24.5q-27 0 -49 -18t-55 -76zM299 338q0 -97 55.5 -144t151.5 -47 q169 0 334 144v211q-12 2 -60 11.5t-80.5 15t-79 11t-81.5 5.5q-125 0 -182.5 -56.5t-57.5 -150.5z" />
<glyph unicode="&#xe4;" horiz-adv-x="1193" d="M84 324q0 87 30 155t82.5 110t120.5 63.5t146 21.5q56 0 125.5 -10t155 -27t96.5 -19v109q0 108 -47 156.5t-168 48.5q-79 0 -170.5 -22t-227.5 -66l-71 151q288 103 501 103q199 0 296.5 -87.5t97.5 -283.5v-727h-211v137q-173 -160 -394 -160q-72 0 -135.5 21.5 t-115 62.5t-81.5 109t-30 154zM299 338q0 -97 55.5 -144t151.5 -47q169 0 334 144v211q-12 2 -60 11.5t-80.5 15t-79 11t-81.5 5.5q-125 0 -182.5 -56.5t-57.5 -150.5zM332 1241v207h192v-207h-192zM684 1241v207h193v-207h-193z" />
<glyph unicode="&#xe5;" horiz-adv-x="1193" d="M84 324q0 87 30 155t82.5 110t120.5 63.5t146 21.5q56 0 125.5 -10t155 -27t96.5 -19v109q0 108 -47 156.5t-168 48.5q-79 0 -170.5 -22t-227.5 -66l-71 151q288 103 501 103q199 0 296.5 -87.5t97.5 -283.5v-727h-211v137q-173 -160 -394 -160q-72 0 -135.5 21.5 t-115 62.5t-81.5 109t-30 154zM299 338q0 -97 55.5 -144t151.5 -47q169 0 334 144v211q-12 2 -60 11.5t-80.5 15t-79 11t-81.5 5.5q-125 0 -182.5 -56.5t-57.5 -150.5zM387 1419q0 91 63 155t154 64t155 -64t64 -155t-64 -155t-155 -64t-154 64t-63 155zM498 1419 q0 -44 31 -75t75 -31t75.5 31t31.5 75t-31.5 75.5t-75.5 31.5t-75 -31.5t-31 -75.5z" />
<glyph unicode="&#xe6;" horiz-adv-x="1890" d="M84 324q0 87 30 155t82.5 110t120.5 63.5t146 21.5q34 0 71.5 -4t82 -13t67 -14t72 -17.5t51.5 -13.5q9 79 31 154q-6 87 -54.5 126.5t-158.5 39.5q-79 0 -170.5 -22t-227.5 -66l-71 151q288 103 501 103q229 0 322 -115q130 115 338 115q229 0 352 -129.5t123 -339.5 q0 -36 -4 -71.5t-8 -53.5l-4 -17h-752q11 -163 85.5 -254.5t197.5 -91.5q49 0 102 12t112.5 37.5t93.5 42t93 48.5l88 -136q-51 -31 -90 -51.5t-110 -51.5t-149.5 -48t-156.5 -17q-125 0 -228.5 53t-168.5 156q-202 -209 -447 -209q-72 0 -135.5 21.5t-115 62.5t-81.5 109 t-30 154zM299 338q0 -97 55.5 -144t151.5 -47q167 0 334 150q-29 93 -35 195q-12 3 -57.5 15t-72 18.5t-66.5 13t-70 6.5q-125 0 -182.5 -56.5t-57.5 -150.5zM1024 614h555q4 165 -64.5 245.5t-199.5 80.5q-126 0 -201.5 -86.5t-89.5 -239.5z" />
<glyph unicode="&#xe7;" horiz-adv-x="1071" d="M96 539q0 137 39 246t105.5 176t150.5 102t178 35q62 0 125.5 -13t128.5 -40t95 -41.5t83 -42.5l-92 -158q-5 2 -29 15.5t-38.5 20.5t-42 20.5t-50 21.5t-50 17t-54 13t-51.5 4q-123 0 -202 -102.5t-79 -273.5t79 -275t202 -104q25 0 51.5 4t54 13t50 17t50 21.5t42 20.5 t38.5 20.5t29 15.5l92 -157q-218 -120 -383 -135q62 -77 62 -164q0 -84 -59.5 -129t-155.5 -45q-91 0 -168 39l49 116q53 -26 103 -26q49 0 78.5 21.5t29.5 66.5q0 51 -45 123q-85 10 -159 49.5t-132 106.5t-91.5 170.5t-33.5 230.5z" />
<glyph unicode="&#xe8;" horiz-adv-x="1181" d="M96 537q0 265 140 413t372 148q228 0 350.5 -129.5t122.5 -339.5q0 -36 -3.5 -71.5t-7.5 -53.5l-3 -17h-752q10 -163 86 -254.5t199 -91.5q63 0 143.5 25.5t130.5 50t125 64.5l91 -136q-49 -28 -70.5 -40t-83.5 -41.5t-108 -44.5t-113.5 -28.5t-130.5 -13.5 q-101 0 -188.5 35t-155 103t-106 176.5t-38.5 245.5zM268 1493h269l251 -272h-176zM315 614h557q3 164 -66 245t-198 81q-126 0 -202 -86.5t-91 -239.5z" />
<glyph unicode="&#xe9;" horiz-adv-x="1181" d="M96 537q0 265 140 413t372 148q228 0 350.5 -129.5t122.5 -339.5q0 -36 -3.5 -71.5t-7.5 -53.5l-3 -17h-752q10 -163 86 -254.5t199 -91.5q63 0 143.5 25.5t130.5 50t125 64.5l91 -136q-49 -28 -70.5 -40t-83.5 -41.5t-108 -44.5t-113.5 -28.5t-130.5 -13.5 q-101 0 -188.5 35t-155 103t-106 176.5t-38.5 245.5zM315 614h557q3 164 -66 245t-198 81q-126 0 -202 -86.5t-91 -239.5zM436 1221l250 272h270l-344 -272h-176z" />
<glyph unicode="&#xea;" horiz-adv-x="1181" d="M96 537q0 265 140 413t372 148q228 0 350.5 -129.5t122.5 -339.5q0 -36 -3.5 -71.5t-7.5 -53.5l-3 -17h-752q10 -163 86 -254.5t199 -91.5q63 0 143.5 25.5t130.5 50t125 64.5l91 -136q-49 -28 -70.5 -40t-83.5 -41.5t-108 -44.5t-113.5 -28.5t-130.5 -13.5 q-101 0 -188.5 35t-155 103t-106 176.5t-38.5 245.5zM291 1221l207 272h227l209 -272h-156l-168 168l-166 -168h-153zM315 614h557q3 164 -66 245t-198 81q-126 0 -202 -86.5t-91 -239.5z" />
<glyph unicode="&#xeb;" horiz-adv-x="1181" d="M96 537q0 265 140 413t372 148q228 0 350.5 -129.5t122.5 -339.5q0 -36 -3.5 -71.5t-7.5 -53.5l-3 -17h-752q10 -163 86 -254.5t199 -91.5q63 0 143.5 25.5t130.5 50t125 64.5l91 -136q-49 -28 -70.5 -40t-83.5 -41.5t-108 -44.5t-113.5 -28.5t-130.5 -13.5 q-101 0 -188.5 35t-155 103t-106 176.5t-38.5 245.5zM315 614h557q3 164 -66 245t-198 81q-126 0 -202 -86.5t-91 -239.5zM340 1241v207h192v-207h-192zM692 1241v207h193v-207h-193z" />
<glyph unicode="&#xec;" horiz-adv-x="518" d="M-84 1493h266l254 -272h-174zM154 0v1075h213v-1075h-213z" />
<glyph unicode="&#xed;" horiz-adv-x="518" d="M84 1221l254 272h266l-344 -272h-176zM154 0v1075h211v-1075h-211z" />
<glyph unicode="&#xee;" horiz-adv-x="518" d="M-61 1221l206 272h226l209 -272h-154l-168 168l-166 -168h-153zM154 0v1075h211v-1075h-211z" />
<glyph unicode="&#xef;" horiz-adv-x="518" d="M-14 1241v207h192v-207h-192zM152 0v1075h210v-1075h-210zM338 1241v207h192v-207h-192z" />
<glyph unicode="&#xf0;" horiz-adv-x="1261" d="M98 475q0 225 131.5 362.5t343.5 137.5q72 0 136 -16t103.5 -39t68.5 -46t41 -39l12 -16q-31 128 -114 237.5t-208 164.5l-118 -105h-197l160 144q-36 4 -60 4q-41 0 -80.5 -5t-58.5 -9l-20 -5l-31 164q75 25 194 25q107 0 217 -29l101 88h201l-162 -143 q190 -101 295.5 -303.5t105.5 -462.5q0 -160 -40.5 -279t-114 -189.5t-168.5 -104.5t-211 -34q-244 0 -385.5 135.5t-141.5 362.5zM317 475q0 -149 81 -239.5t235 -90.5q151 0 232 89t81 243q0 153 -79.5 241.5t-233.5 88.5q-156 0 -236 -92.5t-80 -239.5z" />
<glyph unicode="&#xf1;" horiz-adv-x="1255" d="M154 0v1075h211v-143q236 166 434 166q85 0 146.5 -25t96.5 -72t51.5 -105t16.5 -132v-764h-211v721q0 98 -38 152.5t-132 54.5q-92 0 -195 -52.5t-169 -111.5v-764h-211zM289 1274q24 47 40.5 73.5t41.5 56t54.5 43t66.5 13.5q45 0 98 -24.5t98.5 -49t71.5 -24.5 q27 0 49 18t55 76l105 -49q-45 -91 -89.5 -138.5t-113.5 -47.5q-44 0 -96.5 25t-98 50t-71.5 25t-49 -18.5t-56 -75.5z" />
<glyph unicode="&#xf2;" horiz-adv-x="1239" d="M96 537q0 265 135 413t387 148q251 0 387 -148t136 -413t-136 -412.5t-387 -147.5q-252 0 -387 148t-135 412zM276 1493h265l254 -272h-174zM311 537q0 -187 75.5 -289.5t231.5 -102.5t232 103t76 289q0 187 -76 290t-232 103t-231.5 -103t-75.5 -290z" />
<glyph unicode="&#xf3;" horiz-adv-x="1239" d="M96 537q0 265 135 413t387 148q251 0 387 -148t136 -413t-136 -412.5t-387 -147.5q-252 0 -387 148t-135 412zM311 537q0 -187 75.5 -289.5t231.5 -102.5t232 103t76 289q0 187 -76 290t-232 103t-231.5 -103t-75.5 -290zM442 1221l252 272h267l-343 -272h-176z" />
<glyph unicode="&#xf4;" horiz-adv-x="1239" d="M96 537q0 265 135 413t387 148q251 0 387 -148t136 -413t-136 -412.5t-387 -147.5q-252 0 -387 148t-135 412zM299 1221l207 272h225l209 -272h-154l-168 168l-165 -168h-154zM311 537q0 -187 75.5 -289.5t231.5 -102.5t232 103t76 289q0 187 -76 290t-232 103 t-231.5 -103t-75.5 -290z" />
<glyph unicode="&#xf5;" horiz-adv-x="1239" d="M96 537q0 265 135 413t387 148q251 0 387 -148t136 -413t-136 -412.5t-387 -147.5q-252 0 -387 148t-135 412zM283 1274q17 38 27.5 59t29 49.5t35.5 43t43 25.5t57 11q53 0 144.5 -40t128.5 -42q20 0 33.5 3.5t33.5 22t37 52.5l102 -35q-19 -40 -27 -56.5t-28 -48 t-36.5 -45.5t-44 -26t-58.5 -12q-52 0 -143.5 40.5t-127.5 41.5q-32 0 -56 -15t-48 -63zM311 537q0 -187 75.5 -289.5t231.5 -102.5t232 103t76 289q0 187 -76 290t-232 103t-231.5 -103t-75.5 -290z" />
<glyph unicode="&#xf6;" horiz-adv-x="1239" d="M96 537q0 265 135 413t387 148q251 0 387 -148t136 -413t-136 -412.5t-387 -147.5q-252 0 -387 148t-135 412zM311 537q0 -187 75.5 -289.5t231.5 -102.5t232 103t76 289q0 187 -76 290t-232 103t-231.5 -103t-75.5 -290zM346 1241v207h193v-207h-193zM700 1241v207h191 v-207h-191z" />
<glyph unicode="&#xf7;" d="M119 600v164h1038v-164h-1038zM508 328q0 51 38.5 87t92.5 36q53 0 92 -36t39 -87t-39 -87t-92 -36q-54 0 -92.5 36t-38.5 87zM508 1040q0 50 39 85.5t92 35.5t92 -35.5t39 -85.5q0 -51 -39 -88t-92 -37t-92 37t-39 88z" />
<glyph unicode="&#xf8;" horiz-adv-x="1236" d="M94 537q0 265 135.5 413t388.5 148q182 0 306 -82l47 59h143l-104 -131q131 -146 131 -407q0 -265 -136 -412.5t-387 -147.5q-180 0 -309 80l-45 -57h-147l106 133q-129 147 -129 404zM311 537q0 -151 43 -238l453 571q-72 60 -189 60q-157 0 -232 -103t-75 -290z M426 205q72 -60 192 -60q156 0 232 103t76 289q0 151 -47 241z" />
<glyph unicode="&#xf9;" horiz-adv-x="1255" d="M145 311v764h211v-721q0 -98 38 -152.5t134 -54.5q90 0 193 51.5t170 110.5v766h211v-1075h-211v143q-229 -166 -436 -166q-163 0 -236.5 90.5t-73.5 243.5zM281 1493h266l254 -272h-176z" />
<glyph unicode="&#xfa;" horiz-adv-x="1255" d="M145 311v764h211v-721q0 -98 38 -152.5t134 -54.5q90 0 193 51.5t170 110.5v766h211v-1075h-211v143q-229 -166 -436 -166q-163 0 -236.5 90.5t-73.5 243.5zM446 1221l252 272h269l-344 -272h-177z" />
<glyph unicode="&#xfb;" horiz-adv-x="1255" d="M145 311v764h211v-721q0 -98 38 -152.5t134 -54.5q90 0 193 51.5t170 110.5v766h211v-1075h-211v143q-229 -166 -436 -166q-163 0 -236.5 90.5t-73.5 243.5zM303 1221l205 272h227l209 -272h-153l-168 168l-166 -168h-154z" />
<glyph unicode="&#xfc;" horiz-adv-x="1255" d="M145 311v764h211v-721q0 -98 38 -152.5t134 -54.5q90 0 193 51.5t170 110.5v766h211v-1075h-211v143q-229 -166 -436 -166q-163 0 -236.5 90.5t-73.5 243.5zM350 1241v207h193v-207h-193zM705 1241v207h192v-207h-192z" />
<glyph unicode="&#xfd;" horiz-adv-x="1157" d="M45 1075h229l306 -825l303 825h231l-600 -1493h-229l188 422zM403 1221l252 272h267l-342 -272h-177z" />
<glyph unicode="&#xfe;" horiz-adv-x="1249" d="M154 -418v1911h211v-551q172 156 372 156q185 0 299.5 -140.5t114.5 -420.5q0 -279 -114.5 -419.5t-299.5 -140.5q-198 0 -372 154v-549h-211zM365 311q65 -73 148 -116t173 -43q123 0 186.5 100.5t63.5 284.5q0 185 -63.5 286t-186.5 101q-89 0 -172.5 -44.5 t-148.5 -117.5v-451z" />
<glyph unicode="&#xff;" horiz-adv-x="1157" d="M45 1075h229l306 -825l303 825h231l-600 -1493h-229l188 422zM307 1241v207h193v-207h-193zM662 1241v207h190v-207h-190z" />
<glyph unicode="&#x152;" horiz-adv-x="2250" d="M115 717q0 126 22 234.5t71.5 202.5t124 160t184.5 104t247 38q267 0 428 -139v117h942v-189h-723v-436h596v-184h-596v-437h733v-188h-952v117q-162 -140 -428 -140q-137 0 -247 38t-184.5 104.5t-124 161t-71.5 202.5t-22 234zM342 717q0 -96 13.5 -176t44.5 -150.5 t79 -119t120.5 -76t164.5 -27.5q115 0 199 41.5t132 118t70.5 172.5t22.5 217q0 120 -22.5 216t-70.5 172.5t-132 118.5t-199 42t-198.5 -42t-131.5 -118.5t-70 -172.5t-22 -216z" />
<glyph unicode="&#x153;" horiz-adv-x="2013" d="M96 537q0 265 135 413t387 148q283 0 416 -187q68 91 172 139t234 48q228 0 350.5 -129.5t122.5 -339.5q0 -36 -3.5 -71.5t-7.5 -53.5l-4 -17h-751q11 -163 85 -254.5t195 -91.5q65 0 145.5 25t134 51t122.5 64l90 -136q-54 -32 -91.5 -51.5t-110 -51.5t-149.5 -48.5 t-155 -16.5q-116 0 -214.5 46t-164.5 137q-135 -183 -416 -183q-252 0 -387 148t-135 412zM311 537q0 -187 75.5 -289.5t231.5 -102.5t232 103t76 289q0 187 -76 290t-232 103t-231.5 -103t-75.5 -290zM1147 614h557q1 164 -67.5 245t-196.5 81q-127 0 -203 -86.5 t-90 -239.5z" />
<glyph unicode="&#x178;" horiz-adv-x="1320" d="M29 1434h247l386 -693l382 693h248l-522 -867v-567h-219v567zM387 1550v207h193v-207h-193zM743 1550v207h191v-207h-191z" />
<glyph unicode="&#x2c6;" horiz-adv-x="567" d="M-37 1221l207 272h225l209 -272h-153l-168 168l-166 -168h-154z" />
<glyph unicode="&#x2dc;" horiz-adv-x="598" d="M-41 1288q25 47 41 72.5t41 55.5t54.5 43.5t66.5 13.5q45 0 97.5 -24.5t98 -49.5t72.5 -25q26 0 48.5 18t53.5 76l107 -47q-44 -91 -88.5 -138.5t-114.5 -47.5q-45 0 -97.5 24.5t-98 49t-72.5 24.5q-25 0 -47.5 -18t-54.5 -76z" />
<glyph unicode="&#x2000;" horiz-adv-x="974" />
<glyph unicode="&#x2001;" horiz-adv-x="1948" />
<glyph unicode="&#x2002;" horiz-adv-x="974" />
<glyph unicode="&#x2003;" horiz-adv-x="1948" />
<glyph unicode="&#x2004;" horiz-adv-x="649" />
<glyph unicode="&#x2005;" horiz-adv-x="487" />
<glyph unicode="&#x2006;" horiz-adv-x="324" />
<glyph unicode="&#x2007;" horiz-adv-x="324" />
<glyph unicode="&#x2008;" horiz-adv-x="243" />
<glyph unicode="&#x2009;" horiz-adv-x="389" />
<glyph unicode="&#x200a;" horiz-adv-x="108" />
<glyph unicode="&#x2010;" horiz-adv-x="890" d="M143 494v178h605v-178h-605z" />
<glyph unicode="&#x2011;" horiz-adv-x="890" d="M143 494v178h605v-178h-605z" />
<glyph unicode="&#x2012;" horiz-adv-x="890" d="M143 494v178h605v-178h-605z" />
<glyph unicode="&#x2013;" horiz-adv-x="1159" d="M143 496v176h871v-176h-871z" />
<glyph unicode="&#x2014;" horiz-adv-x="1376" d="M143 496v176h1088v-176h-1088z" />
<glyph unicode="&#x2018;" horiz-adv-x="503" d="M115 1204l196 271l66 -76l-117 -217h107v-277h-230z" />
<glyph unicode="&#x2019;" horiz-adv-x="483" d="M123 940l117 217h-105v277h227l23 -299l-195 -271z" />
<glyph unicode="&#x201a;" horiz-adv-x="518" d="M129 -217l117 217h-105v276h228l22 -299l-194 -270z" />
<glyph unicode="&#x201c;" horiz-adv-x="909" d="M115 1204l196 271l66 -76l-117 -217h107v-277h-230zM518 1204l199 271l65 -76l-116 -217h104v-277h-229z" />
<glyph unicode="&#x201d;" horiz-adv-x="888" d="M123 940l117 217h-105v277h227l23 -299l-195 -271zM526 940l117 217h-104v277h229l23 -299l-197 -271z" />
<glyph unicode="&#x201e;" horiz-adv-x="921" d="M129 -217l117 217h-105v276h228l22 -299l-194 -270zM532 -217l117 217h-104v276h229l23 -299l-197 -270z" />
<glyph unicode="&#x2022;" horiz-adv-x="909" d="M170 582q0 119 82.5 202.5t200.5 83.5t201 -83.5t83 -202.5q0 -118 -82.5 -200.5t-201.5 -82.5t-201 82.5t-82 200.5z" />
<glyph unicode="&#x2026;" horiz-adv-x="1404" d="M139 0v276h234v-276h-234zM586 0v276h233v-276h-233zM1030 0v276h234v-276h-234z" />
<glyph unicode="&#x202f;" horiz-adv-x="389" />
<glyph unicode="&#x2039;" horiz-adv-x="817" d="M72 500v133l624 448v-207l-442 -309l442 -307v-205z" />
<glyph unicode="&#x203a;" horiz-adv-x="817" d="M121 53v207l442 305l-442 309v205l627 -446v-133z" />
<glyph unicode="&#x205f;" horiz-adv-x="487" />
<glyph unicode="&#x20ac;" horiz-adv-x="1470" d="M98 487v125h127q-4 66 -4 105q0 61 2 92h-125v127h140q23 131 76 231.5t127 163t163 94t191 31.5q145 0 280 -56t291 -153l-111 -160q-82 51 -139 81.5t-142.5 59.5t-158.5 29q-126 0 -215.5 -84t-126.5 -237h545v-127h-565q-4 -31 -4 -92q0 -39 4 -105h565v-125h-543 q38 -150 127 -230.5t213 -80.5q73 0 158.5 29t142.5 59.5t139 81.5l111 -160q-156 -97 -291 -153t-280 -56q-135 0 -246 53t-193.5 169.5t-115.5 287.5h-142z" />
<glyph unicode="&#x2122;" horiz-adv-x="1329" d="M131 1348v86h432v-86h-166v-373h-104v373h-162zM635 975v459h110l158 -281l162 281h109v-459h-105v307l-131 -231h-66l-135 237v-313h-102z" />
<glyph unicode="&#x25fc;" horiz-adv-x="1075" d="M0 0v1075h1075v-1075h-1075z" />
</font>
</defs>
</svg>
